<?xml version="1.0" encoding="utf-8"?>
<!-- Generator: Adobe Illustrator 12.0.0, SVG Export Plug-In . SVG Version: 6.00 Build 51448)  -->
<!DOCTYPE svg PUBLIC "-//W3C//DTD SVG 1.0//EN" "http://www.w3.org/TR/2001/REC-SVG-20010904/DTD/svg10.dtd" [
	<!ENTITY ns_svg "http://www.w3.org/2000/svg">
	<!ENTITY ns_xlink "http://www.w3.org/1999/xlink">
]>
<svg  version="1.0" id="Layer_1" xmlns="&ns_svg;" xmlns:xlink="&ns_xlink;" width="504.2" height="105.188"
	 viewBox="0 0 504.2 105.188" overflow="visible" enable-background="new 0 0 504.2 105.188" xml:space="preserve">
<path fill="#F47920" d="M500.5,18.4V6.2h-40.9l-0.8,38.5h18.9c0-2.2,0.1-3.6,0.2-4.2c0.199-0.699,0.6-1.199,1.199-1.8
	c0.601-0.5,1.301-0.8,2.2-0.8c1.4,0,2.4,0.5,3,1.6c0.601,1,0.9,3,0.9,5.801V60.5c-0.101,5.301-0.101,8.301-0.2,9.101
	c0,0.6-0.4,1.2-0.9,1.8c-0.6,0.7-1.399,0.9-2.3,0.9c-2.1,0-3.3-1-3.6-3.101c-0.4-2-0.5-5.6-0.5-10.5v-4.8H458.6v4.2
	c0,7.1,0.801,12.3,2.301,15.7c1.199,2.399,2.8,4.399,5,6c0.699,0.5,1.399,0.899,2.1,1.299c0.3,0.101,0.6,0.301,0.9,0.4
	c2,0.9,4,1.5,6.3,2c2.1,0.4,4.3,0.6,6.7,0.6c2.6,0,5-0.199,7.1-0.6c1.5-0.3,2.8-0.699,4-1.1c3.1-1.2,5.4-2.801,7.1-5
	c1.7-2.1,2.801-4.5,3.4-7c0.5-2.5,0.7-6.5,0.7-11.9V47.601c0-8.4-1.3-14-4-16.9c-2.7-3-6.7-4.5-11.9-4.5c-4.7,0-8.5,1.7-11.399,5.2
	v-13H500.5z"/>
<path fill="#F47920" d="M359.7,8.601c-3.3,2.5-5,7.5-5,14.7v6.6h19.1v-6.3c0-3,0.2-4.9,0.7-5.7c0.5-0.9,1.4-1.4,2.7-1.4
	c1.2,0,2.1,0.4,2.6,1.301c0.601,0.8,0.8,2.6,0.8,5.3v4.2c0,2.5-0.199,4.399-0.699,5.5c-0.4,1.1-1.2,1.899-2.301,2.3
	c-1.1,0.3-3.899,0.5-8.399,0.5v11.1c3.7,0,6.2,0.3,7.5,0.7s2.3,1.3,2.899,2.7c0.7,1.3,1,3.399,1,6.399v5.301
	c0,4.699-0.199,7.699-0.699,8.8c-0.4,1.2-1.4,1.7-2.9,1.7c-1.4,0-2.2-0.4-2.6-1.2c-0.4-1-0.601-3.101-0.601-6.4V52.301h-19.1v6
	c0,7.3,0.6,12.399,1.7,15.399c1,2.899,3.3,5.399,6.8,7.399c1.8,1.101,4,1.9,6.6,2.4c2.2,0.4,4.7,0.6,7.601,0.6
	c2.6,0,5-0.199,7.199-0.6c2.2-0.5,4.101-1.1,5.801-2c3.399-1.8,5.8-4.3,7.199-7.699c1.4-3.301,2.101-8,2.101-14.101
	c0-8.1-0.7-13.3-2.101-15.6c-1.5-2.2-3.6-3.8-6.5-4.8c2.9-1.5,5-3.301,6.101-5.101c1.2-2,1.8-5.1,1.8-9.3c0-6.4-1.6-11.3-4.9-14.9
	c-0.5-0.5-1-1-1.699-1.5C388.9,6,383.3,4.7,375.6,4.7c-7.199,0-12.5,1.3-15.8,3.8C359.8,8.5,359.8,8.5,359.7,8.601z"/>
<path fill="#F47920" d="M450.1,14.601c-1.199-2.5-2.899-4.5-5.3-6.101c-0.6-0.399-1.3-0.8-2.1-1.199
	c-3.4-1.7-7.8-2.601-13.101-2.601c-4.399,0-8.199,0.7-11.5,2.101c-1.199,0.5-2.3,1.1-3.3,1.699c-1.899,1.2-3.399,2.7-4.6,4.4
	c-1.9,2.8-3,5.7-3.3,8.8c-0.2,3-0.4,9.101-0.4,18.2v10.5c0,8.5,0.2,14.1,0.5,17.1c0.3,2.9,1.3,5.7,3.1,8.4
	c1.801,2.6,4.301,4.6,7.601,6.1c1.5,0.6,3.2,1.1,5.2,1.5c2.199,0.4,4.6,0.6,7.399,0.6c2.3,0,4.5-0.199,6.5-0.6
	c1.601-0.3,3-0.699,4.3-1.3c3.101-1.2,5.5-2.899,7.301-5.101c1.8-2.199,2.899-4.6,3.3-7.299c0.399-2.601,0.6-6.601,0.6-11.9v-6.1
	c0-4.5-0.3-8.101-1.1-10.7c-0.7-2.7-2.4-4.9-5.101-6.8c-2.6-1.9-5.699-2.801-9.199-2.801c-2.801,0-5.101,0.5-7,1.5
	c-1.9,1-3.301,2.601-4.301,4.7V25.4c0-2.8,0-4.7,0.101-5.7c0.1-0.899,0.5-1.7,1.1-2.3c0.7-0.6,1.5-0.9,2.4-0.9
	c1.2,0,2.1,0.301,2.8,1c0.7,0.601,1,1.4,1.1,2.301C433.2,20.7,433.2,23,433.2,26.5h19.1C452.3,21.7,451.6,17.801,450.1,14.601z
	 M432.3,44.801c0.601,1,0.9,2.8,0.9,5.5v14.3c0,3.6-0.4,5.7-1.3,6.6c-0.9,0.7-1.7,1.101-2.5,1.101c-1.4,0-2.4-0.5-2.9-1.5
	c-0.6-1.101-0.9-3.301-0.9-6.601V50.301c0-2.801,0.301-4.601,0.9-5.601c0.6-0.899,1.6-1.399,2.9-1.399
	C430.8,43.301,431.7,43.801,432.3,44.801z"/>
<path fill="#117BC0" d="M345.1,27.7c0.301-2.2-1.5-3.5-5.199-4c-13.4-3.5-24.4-3.399-33.101,0.3c-0.1,0.101-0.2,0.101-0.2,0.101
	c-0.1,0-0.199,0.1-0.199,0.1c-7.2,3.8-11.2,10.2-12.2,19.4v17.3c0,0.4,0,0.8,0.1,1.2c1,7.1,3.4,12.399,7.4,15.8
	c6.3,5.9,15.899,7.5,29,5.1c0,0.4,0.1,0.801,0.1,1.2c0,0,0,0,0,0.101c0,0,0,0,0,0.1c0.101,1.5,0,2.9-0.3,4.1c-1,3.4-3.8,5.2-8.5,5.2
	l-7.9-0.2l-13-1c-2-0.3-3,0.5-3.2,2.5v4.801c0,1.6,1.9,2.799,5.5,3.5c11.6,2.799,22.4,2.5,32.5-1c4.8-3.301,7.8-7.9,8.899-13.801
	c0.101-0.6,0.2-1.199,0.3-1.8V27.7z M313.6,34.801c3.4-2,9-2.101,17-0.4v37.3c-6.199,1.101-11,1.3-14.199,0.5
	c-3.4-0.8-5.5-2.7-6.301-5.7c-0.6-1.8-1-3.3-1.199-4.5c-0.5-2.1-0.801-4.5-0.801-7.1c-0.199-6.2,0.301-11,1.5-14.6
	C310.5,37.7,311.8,35.9,313.6,34.801z"/>
<path fill="#117BC0" d="M212.4,0c-0.7,0-1.2,0.301-1.6,0.7c-0.5,0.4-0.7,0.9-0.7,1.601v9.5c0,0.6,0.2,1.1,0.7,1.6
	c0.4,0.4,0.9,0.6,1.6,0.6h9.6c0.7,0,1.2-0.199,1.6-0.6c0.5-0.5,0.7-1,0.7-1.6v-9.5c0-0.7-0.2-1.2-0.7-1.601
	C223.2,0.301,222.7,0,222,0H212.4z"/>
<path fill="#117BC0" d="M181.6,9.601c-0.2-0.101-0.4-0.101-0.6,0l-8.8,1.3c-1.3,0.1-2.1,0.9-2.5,2.4l-0.2,0.199v57
	c0.6,5.2,2.4,8.9,5.5,10.9c0.4,0.3,0.9,0.5,1.4,0.8c1.4,0.7,3.2,1.2,5.4,1.601c3.9,0.6,9,0.6,15.2,0.1c3.2,0,4.7-1.2,4.4-3.6V77.5
	l0,0v-1.1V76.6V75.4c0-0.1,0-0.2,0-0.301c-0.1-0.5-0.3-0.899-0.6-1.199c-0.5-0.5-1-0.7-1.7-0.7h-10.5c-3.4-0.2-5-1.6-4.9-4.399V32.9
	H199c0.6,0,1.1-0.2,1.6-0.7c0.4-0.5,0.6-1,0.6-1.6v-6.4c0-0.6-0.2-1.1-0.6-1.6c-0.5-0.4-1-0.601-1.6-0.601h-15.3V11.801
	C183.4,10.5,182.7,9.7,181.6,9.601z"/>
<path fill="#117BC0" d="M212.4,22.101c-0.7,0-1.2,0.3-1.6,0.7c-0.5,0.5-0.7,1-0.7,1.6V81c0,0.6,0.2,1.1,0.7,1.6
	c0.4,0.4,0.9,0.601,1.6,0.601h9.6c0.7,0,1.2-0.2,1.6-0.601c0.5-0.5,0.7-1,0.7-1.6V24.4c0-0.6-0.2-1.1-0.7-1.6
	c-0.4-0.4-0.9-0.7-1.6-0.7H212.4z"/>
<path fill="#117BC0" d="M157.4,23.5c-3-0.8-5.9-1.3-8.9-1.699c-5-0.601-10.2-0.601-15.3,0c-0.2,0-0.3,0-0.4,0
	c-0.2,0.1-0.4,0.1-0.5,0.1c-10.1,1.8-14.9,7.8-14.3,17.9c0.6,4.5,3.1,8.399,7.5,11.8l15.9,9.8c4.9,2.4,6.4,5.6,4.4,9.7
	c-3.7,2-11.8,2.2-24.3,0.6c-2.3-0.2-3.3,0.601-3.1,2.4v5.3c-0.3,1.6,0.7,2.699,3.1,3.199c8,1.4,15.2,1.9,21.6,1.301
	c8-0.1,13.8-3.7,17.4-10.9c1.9-8.5,0-15-5.7-19.6l-18-10.8c-3.6-2.101-5.1-4-4.4-5.9c-0.2-3.7,7.8-4.399,23.9-2.3
	c2.2,0.3,3.5-0.5,3.8-2.1c0-0.101,0-0.2,0-0.301v-5.399C160.2,25,159.3,24,157.4,23.5z"/>
<path fill="#117BC0" d="M265,21.4c-0.1,0-0.3,0-0.4,0h-10.3c0,0-0.1,0-0.2,0c-10.3,0.4-16.8,6-19.5,17L234.3,81
	c0,0.7,0.2,1.2,0.7,1.6c0.4,0.5,0.9,0.701,1.6,0.701h9.6c0.6,0,1.1-0.201,1.6-0.701c0.4-0.399,0.7-0.899,0.7-1.6l0.1-40.5
	c0.8-4,2.7-6.3,5.9-7.1h9.7c3.4,0.1,5.5,2.8,6.2,7.8L270.3,81c0,0.7,0.2,1.2,0.6,1.6c0.5,0.5,1,0.701,1.7,0.701h9.6
	c0.6,0,1.2-0.201,1.6-0.701c0.5-0.399,0.6-0.899,0.6-1.6l0.5-39.199C283.1,28.601,276.4,21.9,265,21.4z"/>
<path fill="#117BC0" d="M14.2,2.801C14.2,2.2,14,1.7,13.5,1.2c-0.4-0.399-1-0.7-1.6-0.6H2.3C1.6,0.5,1.1,0.801,0.7,1.2
	C0.2,1.7,0,2.2,0,2.801V81.1C0,81.7,0.2,82.2,0.7,82.6c0.4,0.5,0.9,0.701,1.601,0.701h9.6c0.6,0,1.2-0.201,1.6-0.701
	c0.5-0.399,0.7-0.899,0.7-1.5V34.4c14-2.9,21.2-0.5,21.7,7.2L35.8,81.1c0,0.601,0.2,1.101,0.7,1.5c0.4,0.5,0.9,0.701,1.6,0.701h9.6
	c0.7,0,1.2-0.201,1.6-0.701C49.8,82.2,50,81.7,50,81.1l0.2-39.6c-1.9-16.5-13.9-22.899-36-19.1V2.801z"/>
<path fill="#117BC0" d="M88.9,21.4l-4.6-0.2c-13.9,0.8-22.2,8-24.9,21.601v19.3c1.2,12,7.9,19.2,19.9,21.999h9.6
	c12.4-1,19.9-8.699,22.5-23.1V45.7C109.2,30.801,101.7,22.7,88.9,21.4z M84.7,72.301C78.2,71.7,74.5,67.5,73.6,59.7V45.9
	c0.3-7.9,4.2-12,11.6-12.4c6.5,0.4,10.3,4.7,11.5,12.801V60C95.2,68.2,91.2,72.4,84.7,72.301z"/>
</svg>
