<?xml version="1.0" encoding="UTF-8" standalone="no"?>
<!-- Created with Inkscape (http://www.inkscape.org/) -->

<svg
   width="63.39415mm"
   height="56.03096mm"
   viewBox="0 0 63.39415 56.03096"
   version="1.1"
   id="svg586"
   inkscape:version="1.1 (c4e8f9e, 2021-05-24)"
   sodipodi:docname="barcamp_ireland_flame_only_logo.svg"
   xmlns:inkscape="http://www.inkscape.org/namespaces/inkscape"
   xmlns:sodipodi="http://sodipodi.sourceforge.net/DTD/sodipodi-0.dtd"
   xmlns="http://www.w3.org/2000/svg"
   xmlns:svg="http://www.w3.org/2000/svg">
  <sodipodi:namedview
     id="namedview588"
     pagecolor="#ffffff"
     bordercolor="#666666"
     borderopacity="1.0"
     inkscape:pageshadow="2"
     inkscape:pageopacity="0.0"
     inkscape:pagecheckerboard="0"
     inkscape:document-units="mm"
     showgrid="false"
     fit-margin-top="0"
     fit-margin-left="0"
     fit-margin-right="0"
     fit-margin-bottom="0"
     inkscape:zoom="0.77771465"
     inkscape:cx="-199.30189"
     inkscape:cy="133.72514"
     inkscape:window-width="2004"
     inkscape:window-height="1150"
     inkscape:window-x="0"
     inkscape:window-y="25"
     inkscape:window-maximized="0"
     inkscape:current-layer="layer1" />
  <defs
     id="defs583" />
  <g
     inkscape:label="Layer 1"
     inkscape:groupmode="layer"
     id="layer1"
     transform="translate(-54.715301,-116.91227)">
    <path
       fill="#88c540"
       d="m 117.36862,153.59103 c 0.50271,-2.54 0.74083,-5.13265 0.74083,-7.77849 0,-2.67255 -0.23812,-5.26521 -0.71437,-7.85812 -0.50271,-2.56646 -1.21708,-5.02709 -2.19604,-7.35542 -0.9525,-2.30187 -2.16959,-4.41854 -3.62479,-6.27062 -1.45521,-1.87881 -3.14855,-3.43959 -5.08,-4.68313 -1.905,-1.21708 -4.07459,-2.06375 -6.4823,-2.48682 -2.381246,-0.39687 -5.000621,-0.3175 -7.884579,0.26458 0.79375,0.31724 1.561042,0.6612 2.328333,1.0848 0.767292,0.39687 1.481667,0.8202 2.196042,1.29619 0.502708,0.29131 0.978958,0.635 1.42875,0.97896 0.449791,0.34396 0.767291,0.71437 1.005416,1.11125 0.211667,0.39687 0.264584,0.82021 0.07938,1.24354 -0.449791,0.79375 -1.031875,1.32292 -1.772708,1.5875 -0.714375,0.29104 -1.481667,0.37015 -2.301875,0.3175 -0.846666,-0.0796 -1.666875,-0.23812 -2.460625,-0.50271 -0.820208,-0.26458 -1.534583,-0.52916 -2.169583,-0.84666 -0.687917,-0.3175 -1.42875,-0.68792 -2.169583,-1.05834 -0.740834,-0.37015 -1.481667,-0.71437 -2.275417,-1.00541 -0.767292,-0.3175 -1.534583,-0.52917 -2.328333,-0.66146 -0.79375,-0.15875 -1.613959,-0.15875 -2.407709,-0.0265 -0.820208,0.15875 -1.534583,0.47625 -2.169583,0.97869 -0.661458,0.47652 -1.217083,1.08506 -1.693333,1.79943 -0.502709,0.68792 -0.899584,1.42849 -1.27,2.19605 -0.343959,0.79375 -0.661459,1.53458 -0.899584,2.24895 0.899584,-0.26458 1.852084,-0.47625 2.910417,-0.635 1.031875,-0.13229 2.037292,-0.1852 3.069167,-0.0794 1.005416,0.0794 1.957916,0.34396 2.804583,0.82021 0.846667,0.44979 1.534583,1.16416 2.06375,2.11666 0.3175,0.58209 0.555625,1.24355 0.714375,1.98438 0.15875,0.76729 0.238125,1.53485 0.238125,2.3286 -0.02646,0.79375 -0.132292,1.56077 -0.343958,2.30161 -0.211667,0.71437 -0.529167,1.37583 -0.978959,1.95791 -0.423333,0.55589 -1.005416,1.00542 -1.693333,1.29646 -0.767292,0.3175 -1.508125,0.44979 -2.196042,0.39688 -0.687916,-0.0267 -1.349375,-0.18521 -2.010833,-0.47625 -0.635,-0.26459 -1.243542,-0.635 -1.825625,-1.03188 -0.608542,-0.39687 -1.190625,-0.84666 -1.772708,-1.27 -0.555625,-0.4236 -1.137709,-0.82047 -1.693334,-1.13797 -0.502708,-0.31724 -1.084791,-0.63474 -1.74625,-0.97869 -0.661458,-0.3175 -1.375833,-0.635 -2.090208,-0.92605 -0.740833,-0.26458 -1.455208,-0.42359 -2.169583,-0.5027 -0.714375,-0.0529 -1.375833,0.0529 -1.984375,0.29104 -0.582083,0.26458 -1.084792,0.74109 -1.508125,1.48193 -0.291042,0.55562 -0.502708,1.13771 -0.582083,1.71979 -0.07937,0.58208 -0.132292,1.19062 -0.105834,1.77271 0,0.60854 0.02646,1.21708 0.05292,1.79916 0,0.60855 0,1.19063 -0.07937,1.77271 -0.07937,0.58209 -0.264583,1.16391 -0.555625,1.71979 -0.449792,0.87313 -1.031875,1.48167 -1.74625,1.87855 -0.687917,0.39687 -1.455208,0.635 -2.301875,0.71437 -0.820208,0.0794 -1.666875,0.0794 -2.54,-0.0265 -0.846667,-0.0796 -1.666875,-0.21193 -2.460625,-0.3175 0.370417,0.34396 0.740833,0.71438 1.084792,1.08479 0.370416,0.37042 0.740833,0.71438 1.137708,1.03188 0.502708,0.37015 1.031875,0.74083 1.613958,1.03161 0.555625,0.3175 1.164167,0.52917 1.772709,0.66146 0.635,0.13229 1.243541,0.13229 1.905,0.0267 0.79375,-0.15901 1.508125,-0.44979 2.143125,-0.84667 0.635,-0.37041 1.243541,-0.87312 1.825625,-1.42875 0.396875,-0.39687 0.740833,-0.8202 1.058333,-1.24327 0.291042,-0.4236 0.635,-0.79375 1.005416,-1.16417 0.370417,-0.34396 0.846667,-0.60854 1.402292,-0.79375 0.687917,-0.18521 1.402292,-0.23812 2.116667,-0.15875 0.714375,0.0794 1.375833,0.29104 2.010833,0.60854 0.899583,0.44979 1.772708,1.05834 2.54,1.82536 0.767292,0.76729 1.375833,1.64042 1.825625,2.59318 0.423333,0.9787 0.635,1.98438 0.582083,3.04271 -0.05292,0.55563 -0.211666,1.05834 -0.449791,1.53459 -0.264584,0.47625 -0.582084,0.89931 -0.978959,1.29619 -0.370416,0.37042 -0.79375,0.7411 -1.217083,1.03187 -0.370417,0.29105 -0.899583,0.52917 -1.613958,0.7673 -0.714375,0.21166 -1.534584,0.39687 -2.460625,0.52916 0.608541,0.82021 1.27,1.45521 2.010833,1.90474 0.767292,0.44979 1.5875,0.76729 2.460625,0.92604 0.899583,0.18521 1.825625,0.23812 2.804583,0.23812 0.978959,-0.0265 2.010834,-0.0794 3.069167,-0.1852 0.873125,-0.0794 1.719792,-0.23786 2.619375,-0.47625 0.873125,-0.23813 1.772708,-0.47625 2.672292,-0.71438 0.873125,-0.23786 1.799166,-0.42333 2.672291,-0.50244 0.899584,-0.10584 1.772709,-0.0529 2.645834,0.13229 0.9525,0.23786 1.613958,0.63473 1.984374,1.1639 0.396875,0.55589 0.529167,1.16417 0.47625,1.85208 -0.07937,0.66146 -0.3175,1.34964 -0.714375,2.0111 -0.370416,0.66146 -0.873124,1.21709 -1.455208,1.71979 -0.926041,0.71411 -1.931458,1.26974 -3.01625,1.61396 -1.058333,0.37042 -2.169583,0.58182 -3.33375,0.68792 -1.137708,0.0796 -2.301875,0.0796 -3.439583,-0.0265 1.217083,0.60854 2.460625,1.19063 3.730625,1.69333 1.243542,0.52917 2.54,0.9787 3.836458,1.34938 3.042709,0.82021 5.820833,1.13771 8.334375,0.92604 2.513543,-0.18521 4.788953,-0.84667 6.773333,-1.905 2.01083,-1.08506 3.75708,-2.48682 5.23875,-4.23333 1.50812,-1.74652 2.75166,-3.75709 3.75708,-5.97959 0.97896,-2.24948 1.71979,-4.60427 2.2225,-7.17073 z M 99.138829,136.02269 c 0.291042,-0.1852 0.635,-0.23812 0.952501,-0.1852 0.34396,0.0794 0.60854,0.26458 0.82021,0.55562 0.92604,1.40229 1.64041,2.88396 2.11666,4.49792 0.50271,1.5875 0.74084,3.22791 0.74084,4.92151 0,1.74625 -0.26459,3.41286 -0.76729,5.02708 -0.50271,1.64042 -1.24355,3.14828 -2.2225,4.5773 -0.21167,0.29104 -0.50271,0.47625 -0.820213,0.52916 -0.343958,0.0794 -0.635,0 -0.9525,-0.18521 -0.291041,-0.21166 -0.449791,-0.50244 -0.529166,-0.8202 -0.05292,-0.34396 0,-0.635 0.211666,-0.95277 0.820209,-1.21708 1.455213,-2.51354 1.878543,-3.88911 0.44979,-1.37583 0.66146,-2.80485 0.66146,-4.28625 0,-1.42875 -0.21167,-2.83104 -0.635,-4.18041 -0.39688,-1.37584 -1.005419,-2.61938 -1.799169,-3.81 -0.211667,-0.3175 -0.264584,-0.66146 -0.185209,-0.97896 0.05292,-0.34423 0.238125,-0.60881 0.529167,-0.82048 z m 4.418541,-2.48708 c 0.0529,-0.34396 0.23813,-0.60854 0.52917,-0.82021 0.3175,-0.18521 0.635,-0.23812 0.9525,-0.18521 0.34396,0.0794 0.60854,0.26459 0.82021,0.55563 1.27,1.87881 2.2225,3.91583 2.88395,6.05896 0.635,2.16958 0.97896,4.39208 0.97896,6.6675 0,2.35452 -0.34396,4.60348 -1.03187,6.79979 -0.68792,2.22223 -1.69334,4.25979 -3.01625,6.19098 -0.21167,0.29131 -0.47625,0.47625 -0.82021,0.52917 -0.3175,0.0529 -0.635,0 -0.92604,-0.21167 -0.29104,-0.21166 -0.47625,-0.47625 -0.52917,-0.79375 -0.0794,-0.34395 0,-0.66145 0.18521,-0.9525 1.19062,-1.71979 2.06375,-3.57187 2.67229,-5.50359 0.60854,-1.95766 0.92604,-3.96875 0.92604,-6.0587 0,-2.03729 -0.29104,-3.99547 -0.87312,-5.92666 -0.58209,-1.905 -1.45521,-3.70417 -2.56646,-5.37105 -0.21167,-0.31723 -0.26458,-0.66119 -0.18521,-0.97869 z m 5.26521,-3.96875 c 0.29104,-0.21167 0.60854,-0.26458 0.9525,-0.18521 0.3175,0.0529 0.58208,0.23813 0.79375,0.52917 1.5875,2.38125 2.80458,4.89479 3.59833,7.59354 0.82021,2.67256 1.24354,5.45068 1.24354,8.30792 0,2.93687 -0.42333,5.76791 -1.29645,8.49312 -0.84667,2.75167 -2.09021,5.31839 -3.75709,7.72584 -0.21166,0.29104 -0.47625,0.44979 -0.82021,0.52916 -0.3175,0.0529 -0.635,0 -0.92604,-0.21166 -0.29104,-0.21167 -0.47625,-0.47625 -0.52916,-0.82048 -0.0794,-0.31723 0,-0.63473 0.1852,-0.9525 1.50813,-2.16958 2.64584,-4.52437 3.43959,-7.01146 0.76729,-2.51354 1.16416,-5.08 1.16416,-7.75229 0,-2.59291 -0.37041,-5.13291 -1.1377,-7.56735 -0.74084,-2.46062 -1.82563,-4.7625 -3.28084,-6.90562 -0.18521,-0.3175 -0.23812,-0.635 -0.18521,-0.97896 0.0794,-0.31697 0.23813,-0.58155 0.55563,-0.79322 z"
       id="path9"
       style="stroke-width:0.264583" />
  </g>
</svg>
