<?xml version="1.0" encoding="utf-8"?>
<!-- Generator: Adobe Illustrator 12.0.0, SVG Export Plug-In . SVG Version: 6.00 Build 51448)  -->
<!DOCTYPE svg PUBLIC "-//W3C//DTD SVG 1.0//EN" "http://www.w3.org/TR/2001/REC-SVG-20010904/DTD/svg10.dtd" [
	<!ENTITY ns_svg "http://www.w3.org/2000/svg">
	<!ENTITY ns_xlink "http://www.w3.org/1999/xlink">
]>
<svg  version="1.0" id="Layer_1" xmlns="&ns_svg;" xmlns:xlink="&ns_xlink;" width="909" height="211.771"
	 viewBox="0 0 909 211.771" overflow="visible" enable-background="new 0 0 909 211.771" xml:space="preserve">
<path fill="#88C540" d="M236.8,138.63c1.9-9.6,2.8-19.399,2.8-29.399c0-10.101-0.9-19.9-2.7-29.7c-1.9-9.7-4.6-19-8.3-27.8
	c-3.6-8.7-8.2-16.7-13.7-23.7c-5.5-7.101-11.9-13-19.2-17.7c-7.2-4.6-15.4-7.8-24.5-9.399c-9-1.5-18.9-1.2-29.8,1
	c3,1.199,5.9,2.499,8.8,4.1c2.9,1.5,5.6,3.1,8.3,4.899c1.9,1.101,3.7,2.4,5.4,3.7c1.7,1.3,2.9,2.7,3.8,4.2c0.8,1.5,1,3.1,0.3,4.7
	c-1.7,3-3.9,5-6.7,6c-2.7,1.1-5.6,1.399-8.7,1.2c-3.2-0.301-6.3-0.9-9.3-1.9c-3.1-1-5.8-2-8.2-3.2c-2.6-1.2-5.4-2.6-8.2-4
	c-2.8-1.399-5.6-2.7-8.6-3.8c-2.9-1.2-5.8-2-8.8-2.5c-3-0.6-6.1-0.6-9.1-0.1c-3.1,0.6-5.8,1.8-8.2,3.699
	c-2.5,1.801-4.6,4.101-6.4,6.801c-1.9,2.6-3.4,5.399-4.8,8.3c-1.3,3-2.5,5.8-3.4,8.5c3.4-1,7-1.8,11-2.4c3.9-0.5,7.7-0.7,11.6-0.3
	c3.8,0.3,7.4,1.3,10.6,3.1c3.2,1.7,5.8,4.4,7.8,8c1.2,2.2,2.1,4.7,2.7,7.5c0.6,2.9,0.9,5.801,0.9,8.801c-0.1,3-0.5,5.899-1.3,8.699
	c-0.8,2.7-2,5.2-3.7,7.4c-1.6,2.101-3.8,3.8-6.4,4.9c-2.9,1.2-5.7,1.7-8.3,1.5c-2.6-0.101-5.1-0.7-7.6-1.8c-2.4-1-4.7-2.4-6.9-3.9
	c-2.3-1.5-4.5-3.2-6.7-4.8c-2.1-1.601-4.3-3.101-6.4-4.301c-1.9-1.199-4.1-2.399-6.6-3.699c-2.5-1.2-5.2-2.4-7.9-3.5
	c-2.8-1-5.5-1.601-8.2-1.9c-2.7-0.2-5.2,0.2-7.5,1.1c-2.2,1-4.1,2.801-5.7,5.601c-1.1,2.1-1.9,4.3-2.2,6.5c-0.3,2.2-0.5,4.5-0.4,6.7
	c0,2.3,0.1,4.6,0.2,6.8c0,2.3,0,4.5-0.3,6.7c-0.3,2.2-1,4.399-2.1,6.5c-1.7,3.3-3.9,5.6-6.6,7.1c-2.6,1.5-5.5,2.4-8.7,2.7
	c-3.1,0.3-6.3,0.3-9.6-0.1c-3.2-0.301-6.3-0.801-9.3-1.2c1.4,1.3,2.8,2.7,4.1,4.1c1.4,1.4,2.8,2.7,4.3,3.9
	c1.9,1.399,3.9,2.8,6.1,3.899c2.1,1.2,4.4,2,6.7,2.5c2.4,0.5,4.7,0.5,7.2,0.101c3-0.601,5.7-1.7,8.1-3.2c2.4-1.4,4.7-3.3,6.9-5.4
	c1.5-1.5,2.8-3.1,4-4.699c1.1-1.601,2.4-3,3.8-4.4c1.4-1.3,3.2-2.3,5.3-3c2.6-0.7,5.3-0.9,8-0.6c2.7,0.3,5.2,1.1,7.6,2.3
	c3.4,1.7,6.7,4,9.6,6.899c2.9,2.9,5.2,6.2,6.9,9.801c1.6,3.699,2.4,7.5,2.2,11.5c-0.2,2.1-0.8,4-1.7,5.8c-1,1.8-2.2,3.399-3.7,4.899
	c-1.4,1.4-3,2.801-4.6,3.9c-1.4,1.1-3.4,2-6.1,2.9c-2.7,0.8-5.8,1.5-9.3,2c2.3,3.1,4.8,5.5,7.6,7.199c2.9,1.7,6,2.9,9.3,3.5
	c3.4,0.7,6.9,0.9,10.6,0.9c3.7-0.1,7.6-0.3,11.6-0.7c3.3-0.3,6.5-0.899,9.9-1.8c3.3-0.9,6.7-1.8,10.1-2.7
	c3.3-0.899,6.8-1.6,10.1-1.899c3.4-0.4,6.7-0.2,10,0.5c3.6,0.899,6.1,2.399,7.5,4.399c1.5,2.101,2,4.4,1.8,7
	c-0.3,2.5-1.2,5.101-2.7,7.601c-1.4,2.5-3.3,4.6-5.5,6.5c-3.5,2.699-7.3,4.799-11.4,6.1c-4,1.4-8.2,2.199-12.6,2.6
	c-4.3,0.301-8.7,0.301-13-0.1c4.6,2.3,9.3,4.5,14.1,6.4c4.7,2,9.6,3.699,14.5,5.1c11.5,3.1,22,4.3,31.5,3.5
	c9.5-0.7,18.1-3.2,25.6-7.2c7.6-4.101,14.2-9.399,19.8-16c5.7-6.601,10.4-14.2,14.2-22.6C232.1,157.23,234.9,148.33,236.8,138.63z
	 M167.9,72.23c1.1-0.7,2.4-0.9,3.6-0.7c1.3,0.3,2.3,1,3.1,2.1c3.5,5.3,6.2,10.9,8,17c1.9,6,2.8,12.2,2.8,18.601
	c0,6.6-1,12.899-2.9,19c-1.9,6.2-4.7,11.899-8.4,17.3c-0.8,1.1-1.9,1.8-3.1,2c-1.3,0.3-2.4,0-3.6-0.7c-1.1-0.8-1.7-1.899-2-3.1
	c-0.2-1.3,0-2.4,0.8-3.601c3.1-4.6,5.5-9.5,7.1-14.699c1.7-5.2,2.5-10.601,2.5-16.2c0-5.4-0.8-10.7-2.4-15.8
	c-1.5-5.2-3.8-9.9-6.8-14.4c-0.8-1.2-1-2.5-0.7-3.7C166.1,74.03,166.8,73.03,167.9,72.23z M184.6,62.83c0.2-1.3,0.9-2.3,2-3.1
	c1.2-0.7,2.4-0.9,3.6-0.7c1.3,0.3,2.3,1,3.1,2.1c4.8,7.101,8.4,14.8,10.9,22.9c2.4,8.2,3.7,16.6,3.7,25.2
	c0,8.899-1.3,17.399-3.9,25.7c-2.6,8.399-6.4,16.1-11.4,23.399c-0.8,1.101-1.8,1.8-3.1,2c-1.2,0.2-2.4,0-3.5-0.8s-1.8-1.8-2-3
	c-0.3-1.3,0-2.5,0.7-3.6c4.5-6.5,7.8-13.5,10.1-20.801c2.3-7.399,3.5-15,3.5-22.899c0-7.7-1.1-15.101-3.3-22.4
	c-2.2-7.2-5.5-14-9.7-20.3C184.5,65.33,184.3,64.03,184.6,62.83z M204.5,47.83c1.1-0.8,2.3-1,3.6-0.7c1.2,0.2,2.2,0.9,3,2
	c6,9,10.6,18.5,13.6,28.7c3.1,10.101,4.7,20.601,4.7,31.4c0,11.1-1.6,21.8-4.9,32.1c-3.2,10.4-7.9,20.101-14.2,29.2
	c-0.8,1.1-1.8,1.7-3.1,2c-1.2,0.2-2.4,0-3.5-0.8c-1.1-0.8-1.8-1.8-2-3.101c-0.3-1.199,0-2.399,0.7-3.6c5.7-8.2,10-17.1,13-26.5
	c2.9-9.5,4.4-19.2,4.4-29.3c0-9.8-1.4-19.4-4.3-28.601c-2.8-9.3-6.9-18-12.4-26.1c-0.7-1.2-0.9-2.4-0.7-3.7
	C202.7,49.63,203.3,48.63,204.5,47.83z"/>
<path fill="#FAA823" d="M291.8,47.63h-20.3v111.801h20.3v-8.5c3.9,3.8,7.9,6.399,11.9,8.1c4,1.6,8.3,2.5,13,2.4
	c10.399,0.1,19.399-4,27-12.101c7.6-8,11.399-18.1,11.5-30.1c-0.101-12.4-3.7-22.601-11.101-30.601
	c-7.3-7.899-16.3-11.899-26.8-11.899c-4.899,0-9.399,0.899-13.7,2.8c-4.2,1.7-8.2,4.5-11.8,8.1V47.63z M294.9,105.13v-0.1
	c0.5-3.7,1.5-6.4,3-8c1.6-1.7,3.5-2.1,5.9-1.4c5.601,1.7,8.9,5.801,9.9,12.2c0.1,0.3,0.1,0.601,0.2,0.9c0.199,1.7,0.199,3.5,0.1,5.6
	c0,0.101,0,0.2,0.1,0.4c0,0.6,0.2,1.2,0.5,1.6c0.2,0.101,0.301,0.101,0.4,0c0.1,0,0.2-0.1,0.3-0.2h0.101
	c0-2.3,0.1-4.399,0.399-6.199c0.3-2.7,1.101-5.101,2.101-7l0.1-0.101l0,0c0.9-1.8,2.2-3.2,3.7-4.399l0,0
	c1.399-1.101,3.2-1.9,5.1-2.4c2.4-0.6,4.3-0.1,5.7,1.6c1,1.101,1.7,2.801,2,5.101c0,0.2,0,0.5,0.1,0.8v1.9h0.101
	c4.6,3,6.6,6.3,5.899,9.6c-0.6,2.3-1.899,4.1-3.8,5.4l-0.5,0.3c-0.5,0.2-1,0.5-1.5,0.7c-0.5,0.199-1,0.399-1.6,0.6
	c-4.101,1.1-8.9,0.3-14.4-2.5v0.1c0.601,0.4,1.2,0.801,1.8,1.2c8.5,5.9,14.801,7.7,19,5.4l0.801,3.6c-5.7,1.8-13-0.899-22-8.399
	c-0.2-0.101-0.301-0.2-0.5-0.301l0,0c0,0.101,0.1,0.101,0.1,0.2c6.3,7,8.3,13.9,6,20.7c-0.7,2.3-2.5,3.4-5.5,3.4
	c-2.4,0-4.9-1.101-7.5-3.4h-0.1c-3.5,1.1-6.3,1.3-8.4,0.4c-2.1-0.9-3.2-2.5-3.4-5c-0.2-1.801,0-3.4,0.5-5
	c0.4-1.801,1.3-3.601,2.6-5.2c1.3-1.8,3.2-3.4,5.6-4.8c1.5-0.9,3.3-1.9,5.5-2.9c0-0.2,0.101-0.3,0-0.4c0-0.1-0.1-0.199-0.1-0.3
	c-0.3-0.2-0.7-0.3-1.2-0.1c-0.5,0.1-0.9,0.2-0.9,0.3c-9.3,4.6-16.399,3.9-21.399-1.9c-0.4-0.5-0.7-0.899-0.9-1.399
	c-0.8-1.5-0.8-3-0.1-4.601C289.6,109.03,291.7,107.03,294.9,105.13z"/>
<path fill="#FAA823" d="M413.3,79.43c-4.2-1.8-8.8-2.699-13.6-2.699c-10.601,0-19.5,4-26.9,11.899c-7.3,8-11,18.101-11,30.601
	c0,12,3.8,22.1,11.4,30.1c7.6,8.101,16.6,12.101,27.1,12.101c4.601,0,9-0.801,12.9-2.4c4-1.7,8-4.4,12-8.1v8.5h20.2v-80.7h-20.2v8.8
	C421.5,83.93,417.6,81.23,413.3,79.43z M402.3,91.63c1.5,0.301,3.101,1.101,4.8,2.601c0.2,0.2,0.4,0.399,0.601,0.6l1.2,1.4h0.1
	c5.5-0.7,9.1,0.5,10.7,3.399c1,2.2,1.2,4.301,0.6,6.601l-0.2,0.6c-0.199,0.5-0.399,1-0.699,1.5c-0.2,0.4-0.5,0.9-0.801,1.4
	c-2.399,3.6-6.5,6.1-12.5,7.5c0.801-0.101,1.5-0.2,2.101-0.2c10.3-1.1,16.3-3.8,18-8.2l2.899,2.2c-3.1,5.1-10.5,7.7-22.1,7.9
	c-0.2,0-0.4,0-0.6,0v0.1c0.1,0,0.199,0,0.199,0c9.4,1.2,15.301,5.2,17.9,11.9c1,2.1,0.3,4.199-1.9,6.1c-1.8,1.6-4.5,2.4-7.899,2.3
	l-0.101,0.101c-2,3-4,4.899-6.1,5.699c-2.1,0.7-4.1,0.2-5.8-1.6c-1.2-1.2-2.2-2.6-2.9-4.1c-0.8-1.7-1.3-3.601-1.399-5.601
	c-0.101-2.3,0.3-4.7,1.199-7.3c0.5-1.8,1.301-3.7,2.301-5.8c-0.101-0.101-0.2-0.3-0.2-0.3c-0.101-0.101-0.2-0.2-0.4-0.2
	c-0.3,0.1-0.7,0.3-0.899,0.7c-0.4,0.5-0.5,0.8-0.5,0.8c-4.101,9.5-9.9,13.6-17.5,12.399c-0.601-0.1-1.101-0.199-1.601-0.399
	c-1.5-0.7-2.5-1.8-3-3.4c-0.7-2.2-0.399-5.1,0.8-8.6v-0.2c-2-3-3-5.7-2.899-8c0.1-2.2,1.3-3.9,3.5-4.8c5.399-2.3,10.5-1.4,15.5,2.8
	c0.2,0.2,0.399,0.4,0.6,0.6c1.3,1.2,2.5,2.5,3.8,4.2c0,0,0.101,0.101,0.2,0.2c0.5,0.5,1,0.8,1.5,0.9h0.101
	c0.1,0,0.199-0.101,0.199-0.2c0.101-0.101,0.101-0.2,0.2-0.4c-1.5-1.8-2.8-3.399-3.7-5c-1.5-2.3-2.5-4.5-2.899-6.7v-0.1H394.6
	c-0.399-2-0.399-3.9,0-5.7c0.4-1.8,1.2-3.5,2.4-5.2C398.4,92.13,400.2,91.33,402.3,91.63z"/>
<path fill="#FAA823" d="M481.4,100.23c2.1-3.8,4.699-5.8,7.8-5.8c1.6,0,3.5,0.6,5.899,1.8l6.301-17.4c-2.9-1.4-5.601-2.1-8.301-2.1
	c-3.6,0-7,1-10.199,3.1c-3.101,2-5.601,5.101-7.4,9.101v-10.2H458v80.7h20.2v-36.5C478.1,111.63,479.2,104.13,481.4,100.23z"/>
<path fill="#88C540" d="M896.9,149.03c8-8.2,12.1-18.3,12.1-30.2c0-11.6-4.1-21.5-12.2-29.8c-8.2-8.2-18-12.3-29.5-12.3
	c-6.5,0-12.5,1.399-17.8,4.199c-5.4,2.801-10.1,7.001-14.1,12.601v-14.8H825v110.2h10.4v-43.4c4.3,5.3,9.199,9.3,14.5,11.9
	c5.399,2.699,11.3,4,17.699,4C879.1,161.431,888.8,157.33,896.9,149.03z M882.5,90.931c4.9,2.899,8.8,6.8,11.7,12
	c2.8,5.1,4.3,10.5,4.3,16.199c0,5.7-1.5,11.101-4.4,16.301c-2.899,5.199-6.8,9.199-11.699,12.1c-4.9,2.9-10.101,4.3-15.7,4.3
	c-5.601,0-11-1.399-16.101-4.3c-5.1-2.8-9-6.7-11.8-11.6c-2.7-4.9-4.1-10.4-4.1-16.5c0-9.301,3.1-17.101,9.2-23.301
	c6.199-6.3,13.699-9.399,22.699-9.399C872.3,86.73,877.7,88.13,882.5,90.931z"/>
<path fill="#88C540" d="M735,90.03c3,2,5.1,4.8,6.3,8.3s1.8,10.101,1.9,19.8v41.301h10.3v-31.5c0-11.601,1-19.801,2.9-24.801
	c2-4.899,5-8.899,9.199-11.899c4.101-2.9,8.7-4.4,13.801-4.4c4.1,0,7.699,1,10.699,3c3,1.9,5.101,4.5,6.301,7.8
	c1.3,3.2,1.899,9.2,1.899,17.801v44H808.9v-44c0-10.101-1-17.7-3.101-22.7c-2.1-5.101-5.3-9-9.5-11.7c-4.3-2.9-9.3-4.3-14.8-4.3
	c-6,0-11.6,1.6-16.8,4.899c-5.2,3.301-9.5,8.101-13,14.4c-1.601-4.7-3.5-8.4-5.8-10.9c-2.2-2.6-5.101-4.6-8.601-6.1
	s-7.2-2.3-11.2-2.3c-5.8,0-11.3,1.5-16.5,4.6c-3.899,2.4-7.6,6.2-11.199,11.3V78.73H688v80.7h10.4V125.33c0-10.1,1-17.6,3-22.5
	c2-4.899,5.1-8.8,9.3-11.7c4.2-2.899,8.7-4.3,13.5-4.3C728.3,86.83,731.9,87.83,735,90.03z"/>
<path fill="#88C540" d="M572.1,85.53c-3.399-2.7-7.6-4.8-12.6-6.4c-5-1.6-10.1-2.399-15.5-2.399c-8.5,0-16.2,1.899-23.1,5.6
	c-6.9,3.8-12.301,9-16.2,15.7c-4,6.7-5.9,13.9-5.9,21.7c0,11.6,4.2,21.5,12.601,29.6c8.399,8.101,19,12.101,31.8,12.101
	c8.3,0,15.7-1.601,22.3-4.801c6.5-3.199,11.6-7.699,15.5-13.5l-8.2-5.399c-7.6,9.399-17.3,14.1-29.2,14.1
	c-6.5,0-12.3-1.399-17.5-4.3c-5.199-2.8-9.3-6.9-12.3-12c-3-5.2-4.5-10.8-4.5-16.6c0-9,3.2-16.7,9.7-23c6.6-6.301,14.7-9.5,24.6-9.5
	c12.301,0,22,4.699,29.2,14.199l8.2-5.199C578.6,91.431,575.6,88.13,572.1,85.53z"/>
<path fill="#88C540" d="M628.8,76.73c-11.399,0-21.2,4.1-29.399,12.3c-8.101,8.3-12.301,18.2-12.301,29.8c0,11.9,4.101,22,12.2,30.2
	c8.101,8.3,17.8,12.4,29.2,12.4c6.5,0,12.4-1.301,17.8-3.9c5.4-2.7,10.3-6.7,14.601-12v13.9H671.3v-80.7H660.9v14.8
	c-4-5.6-8.7-9.8-14.101-12.601C641.5,78.13,635.5,76.73,628.8,76.73z M602,102.931c2.9-5.2,6.8-9.101,11.7-12
	c4.8-2.801,10.2-4.2,15.899-4.2c9,0,16.601,3.1,22.7,9.399c6.2,6.2,9.2,14,9.3,23.301c0,6.1-1.399,11.6-4.199,16.5
	c-2.7,4.899-6.601,8.8-11.7,11.6c-5.101,2.9-10.5,4.3-16.101,4.3c-5.699,0-10.899-1.5-15.8-4.3c-4.899-2.9-8.8-6.9-11.8-12.1
	c-2.9-5.2-4.4-10.601-4.4-16.301C597.6,113.431,599.1,108.03,602,102.931z"/>
<path fill="#FAA823" d="M643.6,171.13H641.9v17.801h1.699v-8.601h9.101v8.601h1.8V171.13h-1.8v7.4H643.6V171.13z"/>
<path fill="#FAA823" d="M700.6,173.431c1.2-0.7,2.5-1,3.9-1c1.3,0,2.5,0.199,3.6,0.8c1.101,0.5,2,1.2,2.801,2.2l1.399-1
	c-0.899-1.2-2-2.101-3.3-2.801c-1.4-0.6-2.9-1-4.5-1c-2.8,0-5,0.9-6.9,2.7c-1.8,1.8-2.699,4-2.699,6.601
	c0,2.399,0.699,4.6,2.199,6.299c1.801,2.101,4.301,3.101,7.4,3.101c1.7,0,3.1-0.3,4.5-0.899c1.3-0.601,2.4-1.5,3.3-2.601
	l-1.399-1.101c-1.7,2-3.801,2.9-6.301,2.9c-2.199,0-4.1-0.699-5.6-2.1c-1.5-1.5-2.3-3.301-2.3-5.5c0-1.4,0.399-2.7,1.1-3.8
	C698.4,175.03,699.3,174.13,700.6,173.431z"/>
<path fill="#FAA823" d="M587,174.53c-0.5,1.3-0.8,3.2-0.8,5.5s0.3,4.1,0.8,5.4c0.5,1.299,1.2,2.299,2.1,2.899c0.9,0.7,1.9,1,3,1
	c1.2,0,2.301-0.3,3.2-1c1-0.601,1.7-1.601,2.3-3c0.5-1.3,0.801-3.101,0.801-5.3c0-2.3-0.301-4-0.801-5.3c-0.6-1.4-1.3-2.4-2.3-3.101
	c-0.899-0.6-2-1-3.2-1c-1.1,0-2.1,0.4-3,1C588.1,172.33,587.5,173.33,587,174.53z M587.9,180.03c0-2,0.199-3.5,0.5-4.6
	c0.399-1,0.899-1.801,1.6-2.301c0.7-0.6,1.5-0.8,2.3-0.8c0.7,0,1.5,0.2,2.2,0.8c0.6,0.5,1.2,1.4,1.6,2.601c0.4,1.1,0.5,2.5,0.5,4.3
	s-0.1,3.3-0.6,4.6c-0.4,1-0.9,1.801-1.5,2.301c-0.7,0.6-1.5,0.799-2.2,0.799c-0.8,0-1.6-0.199-2.3-0.799
	c-0.7-0.5-1.2-1.301-1.6-2.301C588.1,183.53,587.9,182.03,587.9,180.03z"/>
<path fill="#FAA823" d="M560,171.83c-0.9,0.8-1.5,1.9-1.9,3.4h1.9c0.3-1.101,0.8-1.8,1.4-2.2c0.5-0.5,1.199-0.7,2-0.7
	c0.899,0,1.699,0.3,2.3,0.9c0.6,0.5,0.899,1.2,0.899,2c0,0.5-0.1,1-0.5,1.5c-0.199,0.5-0.699,0.8-1.399,1.1
	c-0.601,0.2-1.4,0.4-2.2,0.4v1.6c1.4,0.101,2.4,0.3,3.1,0.601c0.601,0.3,1.101,0.699,1.5,1.399c0.4,0.601,0.601,1.2,0.601,1.899
	c0,1.101-0.4,2-1.2,2.701c-0.7,0.799-1.8,1.199-3.1,1.199c-1.101,0-2-0.3-2.801-1c-0.5-0.5-1-1.3-1.3-2.5h-1.8c0.4,1.7,1,3,2.1,3.9
	c1,0.9,2.2,1.3,3.801,1.3c1.1,0,2.199-0.2,3.1-0.7s1.6-1.199,2.1-2.1c0.601-1,0.9-1.9,0.9-2.9c0-1.199-0.4-2.3-1.2-3.199
	c-0.5-0.7-1.3-1.2-2.2-1.5c1.601-0.9,2.4-2.101,2.4-3.7c0-0.8-0.2-1.5-0.7-2.2c-0.399-0.8-1-1.3-1.8-1.7c-0.9-0.5-1.7-0.7-2.6-0.7
	C562.1,170.63,561,171.03,560,171.83z"/>
<path fill="#FAA823" d="M624.3,172.83v-1.7h-9.7v1.7h3.9v16.101h1.9V172.83H624.3z"/>
<path fill="#FAA823" d="M799.3,171.13H797.4v17.801h1.899v-8.301l7.8,8.301h2.301l-9.2-9.801l8.6-8H806.4l-7.101,6.601V171.13z"/>
<path fill="#FAA823" d="M746.1,173.33c-1.8-1.8-4.1-2.7-6.8-2.7c-1.6,0-3.2,0.4-4.6,1.301c-1.5,0.8-2.601,1.899-3.4,3.399
	c-0.8,1.4-1.2,3-1.2,4.7c0,2.6,0.9,4.8,2.7,6.6c1.8,1.801,4,2.7,6.7,2.7c2.6,0,4.8-0.899,6.6-2.7c1.801-1.8,2.7-4,2.7-6.6
	C748.8,177.33,747.9,175.23,746.1,173.33z M739.4,172.33c1.399,0,2.6,0.4,3.8,1.101c1.2,0.699,2.1,1.6,2.8,2.8c0.6,1.1,1,2.3,1,3.8
	c0,1.4-0.4,2.699-1,3.8c-0.7,1.2-1.6,2.101-2.8,2.8c-1.101,0.6-2.4,1-3.8,1c-2,0-3.801-0.8-5.301-2.199
	c-1.5-1.5-2.199-3.201-2.199-5.4c0-1.4,0.3-2.7,1-3.8c0.6-1.2,1.6-2.101,2.8-2.8C736.8,172.73,738.1,172.33,739.4,172.33z"/>
<path fill="#FAA823" d="M778.6,175.83c0-1.1-0.3-2.1-1-2.899c-0.6-0.801-1.5-1.301-2.5-1.601c-0.699-0.1-2.1-0.2-4.1-0.2h-3.5
	v17.801h1.8v-8.2h1l6.4,8.2h2.2l-6.4-8.2c1.5-0.101,2.6-0.3,3.5-0.7c0.8-0.3,1.5-0.8,2-1.6C778.4,177.73,778.6,176.83,778.6,175.83z
	 M772.4,172.83c1.199,0,2.1,0.101,2.6,0.3c0.6,0.2,1,0.601,1.3,1.101s0.5,1,0.5,1.6c0,0.601-0.2,1.2-0.5,1.7s-0.8,0.8-1.3,1
	c-0.6,0.3-1.5,0.4-2.7,0.4h-3v-6.101H772.4z"/>
<path fill="#FAA823" d="M510.6,171.13H507v17.801h1.8v-8.2h1l6.4,8.2h2.2l-6.4-8.2c1.5-0.101,2.6-0.3,3.5-0.7c0.9-0.3,1.6-0.8,2-1.6
	c0.5-0.7,0.6-1.601,0.6-2.601c0-1.1-0.3-2.1-1-2.899c-0.6-0.801-1.5-1.301-2.5-1.601C513.9,171.23,512.6,171.13,510.6,171.13z
	 M508.8,178.931v-6.101h3.2c1.1,0,2,0.101,2.6,0.3c0.5,0.2,0.9,0.601,1.301,1.101c0.199,0.5,0.399,1,0.399,1.6
	c0,0.601-0.2,1.2-0.399,1.7c-0.4,0.5-0.801,0.8-1.4,1c-0.5,0.3-1.4,0.4-2.6,0.4H508.8z"/>
<path fill="#FAA823" d="M339.2,175.83c0-1.1-0.4-2.2-1-2.899c-0.7-0.801-1.5-1.301-2.5-1.601c-0.7-0.1-2.101-0.2-4.101-0.2H328
	v17.801h1.8v-8.301h1.3c2.2,0,3.7-0.1,4.5-0.3c1.101-0.2,2-0.8,2.601-1.5C338.9,178.03,339.2,177.03,339.2,175.83z M336.8,174.23
	c0.4,0.5,0.5,1,0.5,1.6c0,0.601-0.1,1.2-0.5,1.7c-0.3,0.5-0.7,0.8-1.3,1.1c-0.5,0.2-1.4,0.301-2.7,0.301l-3-0.101v-6h3.2
	c1.2,0,2,0.101,2.6,0.3C336.1,173.33,336.5,173.73,336.8,174.23z"/>
<path fill="#FAA823" d="M385.1,178.431v-5.601h8.4v-1.7h-10.2v17.801H393.4v-1.801H385.1v-6.899h8.301v-1.8H385.1z"/>
<path fill="#FAA823" d="M356,172.83h3.9v16.101h1.899V172.83h3.9v-1.7H356V172.83z"/>
<path fill="#FAA823" d="M310,171.13h-10.2v17.801H309.9v-1.801h-8.4v-6.899h8.4v-1.8h-8.4v-5.601h8.5V171.13z"/>
<path fill="#FAA823" d="M277.5,172.931c0.4,0.3,1.1,0.899,1.7,1.8l1.5-1.2c-0.8-1.1-1.6-1.8-2.3-2.3c-0.8-0.4-1.5-0.601-2.4-0.601
	c-0.8,0-1.6,0.2-2.2,0.601c-0.7,0.3-1.2,0.8-1.6,1.5c-0.3,0.6-0.5,1.3-0.5,2.1c0,1,0.2,1.9,0.9,2.7c0.3,0.5,1.3,1.3,2.8,2.5
	c1.5,1.1,2.5,2,3,2.8c0.5,0.601,0.7,1.2,0.7,1.8c0,0.5-0.2,1-0.5,1.5c-0.2,0.4-0.7,0.801-1.2,1.1c-0.5,0.201-1,0.4-1.6,0.4
	c-1.4,0-2.7-1-3.7-3l-1.5,1c0.7,1.301,1.5,2.301,2.3,2.9c1,0.5,2,0.8,3,0.8c1.4,0,2.6-0.5,3.6-1.399c0.9-1,1.4-2.101,1.4-3.4
	c0-0.9-0.2-1.801-0.8-2.6c-0.5-0.9-1.7-1.9-3.2-3.101c-1.3-0.899-2-1.5-2.3-1.8c-0.4-0.4-0.7-0.8-0.8-1.2c-0.2-0.3-0.3-0.6-0.3-1.1
	c0-0.601,0.3-1.101,0.7-1.601c0.5-0.399,1-0.6,1.7-0.6C276.5,172.53,277.1,172.63,277.5,172.931z"/>
<path fill="#FAA823" d="M480.4,180.23h8.399v-1.8H480.4v-5.601h8.5v-1.7h-10.2v17.801h10.1v-1.801H480.4V180.23z"/>
<path fill="#FAA823" d="M413.6,171.13h-0.3l-2.5,17.801h1.7l1.8-12.9l6.3,12.9h0.5l6.301-12.7l1.699,12.7h1.801L428.3,171.13H428
	l-7.1,14.6L413.6,171.13z"/>
<path fill="#FAA823" d="M458.7,175.431c0-0.801-0.2-1.601-0.7-2.301c-0.4-0.699-1-1.199-1.8-1.5c-0.7-0.399-1.8-0.5-3.2-0.5h-3.6
	v17.801h4.899c1.8,0,3.2-0.5,4.2-1.5c1.1-1,1.6-2.201,1.6-3.601c0-0.7-0.1-1.399-0.399-2s-0.7-1.1-1.2-1.5c-0.5-0.5-1.2-0.8-2.1-1.1
	c0.699-0.4,1.3-1,1.699-1.601C458.5,176.931,458.7,176.23,458.7,175.431z M453.2,172.83c1.3,0,2.2,0.3,2.8,0.7
	c0.5,0.5,0.8,1.1,0.8,1.9c0,0.6-0.1,1.199-0.5,1.699c-0.3,0.5-0.8,0.801-1.399,1.101c-0.5,0.2-1.4,0.3-2.7,0.3h-1v-5.7H453.2z
	 M455.4,180.53c0.899,0.2,1.6,0.6,2.1,1.199c0.5,0.601,0.8,1.301,0.8,2.101c0,0.601-0.2,1.2-0.6,1.8c-0.3,0.5-0.8,0.9-1.4,1.2
	c-0.6,0.2-1.6,0.3-2.899,0.3h-2.2v-6.8h1C453.7,180.33,454.8,180.431,455.4,180.53z"/>
<path fill="#88C540" d="M893.1,43.13h-4.6v22.4h7.1c2.801,0,5-0.4,6.5-1.2c1.601-0.8,2.801-2.1,3.801-3.8s1.5-3.7,1.5-5.9
	c0-2.6-0.601-4.899-1.9-6.7c-1.2-1.899-2.9-3.3-5.1-4C898.9,43.33,896.5,43.13,893.1,43.13z M903.5,49.13c1.1,1.5,1.6,3.4,1.6,5.5
	c0,2.101-0.5,3.8-1.5,5.3c-0.899,1.4-2.3,2.4-3.899,2.9c-1.2,0.4-3.4,0.7-6.5,0.7H890.6v-18.2h1.601c3.2,0,5.5,0.2,6.899,0.6
	C901,46.53,902.5,47.53,903.5,49.13z"/>
<path fill="#88C540" d="M761.8,43.43c-0.899-0.199-2.6-0.3-5.1-0.3h-4.5v22.4h2.3v-10.4h1.2l8.1,10.4h2.8l-8.1-10.4
	c1.9,0,3.4-0.3,4.4-0.7c1.1-0.5,1.899-1.199,2.5-2.1c0.6-1,0.899-2,0.899-3.2c0-1.5-0.399-2.8-1.3-3.7
	C764.2,44.33,763.1,43.73,761.8,43.43z M758.4,45.33c1.6,0,2.699,0.1,3.3,0.4c0.7,0.199,1.2,0.699,1.6,1.3
	c0.4,0.6,0.601,1.3,0.601,2c0,0.8-0.2,1.5-0.601,2.2c-0.399,0.6-0.899,1-1.6,1.3c-0.8,0.3-1.9,0.399-3.4,0.399h-3.8v-7.6H758.4z"/>
<path fill="#88C540" d="M781.3,54.53h10.5v-2.2h-10.5v-7H791.9v-2.2H779.1v22.4h12.7v-2.2h-10.5V54.53z"/>
<path fill="#88C540" d="M739,43.13h-2.3v22.4h2.3V43.13z"/>
<path fill="#88C540" d="M857.9,43.13h-0.5v22.4h2.3v-17l14.8,17h0.5v-22.4h-2.2v17.2L857.9,43.13z"/>
<path fill="#88C540" d="M835.4,43.13h-0.5L824.3,65.53h2.5l3.5-7.4h9.601l3.6,7.4h2.4L835.4,43.13z M831.3,56.03l3.8-8.101
	l3.9,8.101H831.3z"/>
<path fill="#88C540" d="M806,43.13h-2.2v22.4h10.9V63.43H806V43.13z"/>
</svg>
