<?xml version="1.0" encoding="UTF-8" standalone="no"?>
<!-- Created with Inkscape (http://www.inkscape.org/) -->
<svg
   xmlns:dc="http://purl.org/dc/elements/1.1/"
   xmlns:cc="http://web.resource.org/cc/"
   xmlns:rdf="http://www.w3.org/1999/02/22-rdf-syntax-ns#"
   xmlns:svg="http://www.w3.org/2000/svg"
   xmlns="http://www.w3.org/2000/svg"
   xmlns:sodipodi="http://sodipodi.sourceforge.net/DTD/sodipodi-0.dtd"
   xmlns:inkscape="http://www.inkscape.org/namespaces/inkscape"
   width="744.09448819"
   height="1052.3622047"
   id="svg2"
   sodipodi:version="0.32"
   inkscape:version="0.44.1"
   sodipodi:docbase="C:\argolon\business\BarCamp\Graphics_for_posters"
   sodipodi:docname="room.svg">
  <defs
     id="defs4" />
  <sodipodi:namedview
     id="base"
     pagecolor="#ffffff"
     bordercolor="#666666"
     borderopacity="1.0"
     gridtolerance="10000"
     guidetolerance="10"
     objecttolerance="10"
     inkscape:pageopacity="0.0"
     inkscape:pageshadow="2"
     inkscape:zoom="0.7"
     inkscape:cx="512.90456"
     inkscape:cy="619.71199"
     inkscape:document-units="px"
     inkscape:current-layer="layer1"
     inkscape:window-width="970"
     inkscape:window-height="923"
     inkscape:window-x="201"
     inkscape:window-y="1" />
  <metadata
     id="metadata7">
    <rdf:RDF>
      <cc:Work
         rdf:about="">
        <dc:format>image/svg+xml</dc:format>
        <dc:type
           rdf:resource="http://purl.org/dc/dcmitype/StillImage" />
      </cc:Work>
    </rdf:RDF>
  </metadata>
  <g
     inkscape:label="Layer 1"
     inkscape:groupmode="layer"
     id="layer1">
    <g
       id="g1912"
       inkscape:label="Layer 1"
       transform="translate(13.57142,-8.882229)">
      <path
         style="fill:#faa823"
         id="path5"
         d="M 232.39163,63.112047 L 217.00472,63.112047 L 217.00472,135.69517 L 232.39163,135.69517 L 232.39163,130.17682 C 235.34773,132.64385 238.37964,134.33116 241.41154,135.43548 C 244.44344,136.47423 247.70274,137.05852 251.26523,136.9936 C 259.14742,137.05852 265.9692,134.39673 271.73057,129.13743 C 277.49119,123.94369 280.37074,117.3866 280.44729,109.59599 C 280.37074,101.5457 277.64278,94.923037 272.033,89.729297 C 266.49978,84.601127 259.678,82.004267 251.71925,82.004267 C 248.00593,82.004267 244.59504,82.587907 241.33498,83.822067 C 238.15149,84.925737 235.11958,86.743547 232.39087,89.080727 L 232.39087,63.112047 L 232.39163,63.112047 z M 234.74135,100.44203 L 234.74135,100.37711 C 235.12034,97.975007 235.87832,96.222117 237.01528,95.183367 C 238.22804,94.079697 239.6682,93.820017 241.48734,94.274467 C 245.73276,95.378137 248.23332,98.040577 248.9913,102.19492 C 249.0671,102.38968 249.0671,102.5851 249.14289,102.77921 C 249.29373,103.88288 249.29373,105.05147 249.21869,106.41483 C 249.21869,106.4804 249.21869,106.54467 249.29449,106.67452 C 249.29449,107.06405 249.44608,107.45358 249.67348,107.71326 C 249.82507,107.77883 249.90163,107.77883 249.97667,107.71326 C 250.05246,107.71326 250.12826,107.64834 250.20406,107.58342 L 250.28061,107.58342 C 250.28061,106.09022 250.35641,104.72751 250.58305,103.55892 C 250.81044,101.80604 251.41758,100.24727 252.17555,99.014397 L 252.25135,98.948827 L 252.25135,98.948827 C 252.93353,97.780237 253.9189,96.871337 255.05586,96.092927 L 255.05586,96.092927 C 256.11627,95.378137 257.48138,94.859407 258.92154,94.534797 C 260.74068,94.145267 262.18083,94.469877 263.242,95.573547 C 263.99998,96.288337 264.53056,97.392007 264.75795,98.885207 C 264.75795,99.015047 264.75795,99.209817 264.83375,99.404577 L 264.83375,100.63809 L 264.91031,100.63809 C 268.39699,102.58575 269.91295,104.72816 269.3816,106.87058 C 268.92682,108.36378 267.94221,109.53237 266.5013,110.37635 L 266.12231,110.57112 C 265.74332,110.70096 265.36433,110.89572 264.98535,111.02557 C 264.60636,111.15476 264.22737,111.28461 263.77258,111.4151 C 260.66412,112.12924 257.0266,111.60986 252.85773,109.79206 L 252.85773,109.85698 C 253.31328,110.11666 253.7673,110.377 254.22209,110.63604 C 260.66488,114.46642 265.44089,115.63501 268.62363,114.14181 L 269.23077,116.47899 C 264.91031,117.64758 259.37708,115.89535 252.5553,111.02622 C 252.4037,110.96065 252.32715,110.89637 252.17631,110.8308 L 252.17631,110.8308 C 252.17631,110.89637 252.25211,110.89637 252.25211,110.96065 C 257.02736,115.50517 258.54331,119.98476 256.79996,124.39944 C 256.26938,125.89264 254.90502,126.60678 252.6311,126.60678 C 250.81196,126.60678 248.91702,125.89199 246.94628,124.39944 L 246.87048,124.39944 C 244.21757,125.11358 242.09523,125.24342 240.50348,124.65913 C 238.91174,124.07483 238.07796,123.03608 237.92637,121.41304 C 237.77477,120.2438 237.92637,119.2057 238.30535,118.16696 C 238.60855,116.99772 239.29072,115.82912 240.27609,114.79103 C 241.26146,113.62244 242.70161,112.58369 244.52076,111.67478 C 245.65772,111.09049 247.02208,110.44127 248.68962,109.79206 C 248.68962,109.66221 248.76618,109.59729 248.68962,109.53237 C 248.68962,109.46745 248.61383,109.40317 248.61383,109.3376 C 248.38643,109.20776 248.08324,109.14284 247.70425,109.27268 C 247.32527,109.3376 247.02208,109.40253 247.02208,109.46745 C 239.9729,112.45385 234.59203,111.99939 230.80215,108.23393 C 230.49896,107.90933 230.27157,107.65029 230.11997,107.32568 C 229.51359,106.35185 229.51359,105.37803 230.04418,104.33863 C 230.72408,102.97398 232.31583,101.67554 234.74135,100.44203 z " />
      <path
         style="fill:#faa823"
         id="path7"
         d="M 324.48569,83.757147 C 321.30219,82.588557 317.8155,82.004917 314.17722,82.004917 C 306.14191,82.004917 299.39669,84.601777 293.78767,89.729947 C 288.25444,94.923687 285.44993,101.48143 285.44993,109.59664 C 285.44993,117.38725 288.33024,123.94434 294.09086,129.13808 C 299.85147,134.39738 306.67326,136.99425 314.632,136.99425 C 318.11945,136.99425 321.45378,136.47423 324.40989,135.43613 C 327.44179,134.33246 330.4737,132.57957 333.5056,130.17747 L 333.5056,135.69582 L 348.81671,135.69582 L 348.81671,83.303997 L 333.5056,83.303997 L 333.5056,89.017107 C 330.70109,86.678627 327.74498,84.925737 324.48569,83.757147 z M 316.14795,91.677597 C 317.28492,91.873007 318.49844,92.392387 319.78624,93.366207 C 319.93783,93.496057 320.08943,93.625247 320.24178,93.755737 L 321.15135,94.664647 L 321.22715,94.664647 C 325.39602,94.210197 328.12473,94.989257 329.33749,96.871337 C 330.09547,98.299607 330.24706,99.663617 329.79228,101.15682 L 329.64068,101.54635 C 329.48984,101.87096 329.33825,102.19557 329.11086,102.52017 C 328.95926,102.77986 328.73187,103.10447 328.50372,103.42908 C 326.68533,105.76626 323.57687,107.3893 319.02902,108.29821 C 319.63616,108.23264 320.16598,108.16836 320.62153,108.16836 C 328.42868,107.45422 332.97653,105.70134 334.26509,102.84478 L 336.46246,104.27306 C 334.11274,107.58407 328.50372,109.27203 319.7112,109.40188 C 319.5596,109.40188 319.40801,109.40188 319.25641,109.40188 L 319.25641,109.4668 C 319.33221,109.4668 319.40725,109.4668 319.40725,109.4668 C 326.53222,110.24586 331.00504,112.84273 332.97502,117.19248 C 333.73299,118.55584 333.20241,119.91854 331.53486,121.15271 C 330.17051,122.19145 328.12397,122.71083 325.54761,122.6459 L 325.47106,122.71148 C 323.9551,124.65913 322.43915,125.89199 320.8474,126.41136 C 319.25565,126.86582 317.7397,126.54121 316.45114,125.37262 C 315.54157,124.59356 314.7836,123.68465 314.25301,122.71083 C 313.64663,121.60716 313.26765,120.373 313.19261,119.07456 C 313.11605,117.58136 313.42,116.02324 314.10142,114.33528 C 314.48041,113.16669 315.08755,111.93317 315.84552,110.56982 C 315.76897,110.50425 315.69393,110.37505 315.69393,110.37505 C 315.61737,110.30948 315.54233,110.24521 315.39074,110.24521 C 315.16334,110.31013 314.86015,110.43997 314.70932,110.69966 C 314.40612,111.02427 314.33033,111.21903 314.33033,111.21903 C 311.22187,117.3866 306.82637,120.04839 301.06575,119.26868 C 300.61021,119.20376 300.23122,119.13948 299.85223,119.00964 C 298.71527,118.55519 297.95729,117.84105 297.5783,116.8023 C 297.04772,115.37402 297.27587,113.49129 298.18468,111.21903 L 298.18468,111.08919 C 296.66873,109.14154 295.91076,107.38865 295.98731,105.89545 C 296.06311,104.46718 296.97268,103.36351 298.64023,102.77921 C 302.73254,101.28601 306.59897,101.87031 310.38885,104.59702 C 310.54045,104.72686 310.69129,104.85671 310.84364,104.98655 C 311.82901,105.76561 312.73858,106.60959 313.72395,107.71326 C 313.72395,107.71326 313.8005,107.77883 313.87554,107.84311 C 314.25453,108.16771 314.63352,108.36248 315.01251,108.4274 L 315.08906,108.4274 C 315.16486,108.4274 315.2399,108.36183 315.2399,108.29756 C 315.31645,108.23199 315.31645,108.16771 315.39149,108.03787 C 314.25453,106.86928 313.26916,105.83118 312.58698,104.79179 C 311.45002,103.29859 310.69204,101.87031 310.38961,100.44203 L 310.38961,100.37711 L 310.31154,100.37711 C 310.00911,99.078677 310.00911,97.845157 310.31154,96.676567 C 310.61473,95.507977 311.22111,94.404307 312.13068,93.300637 C 313.19185,92.002207 314.5562,91.482837 316.14795,91.677597 z " />
      <path
         style="fill:#faa823"
         id="path9"
         d="M 376.10384,97.260867 C 377.69559,94.793837 379.66557,93.495407 382.01605,93.495407 C 383.22881,93.495407 384.66897,93.884937 386.48735,94.663997 L 391.26335,83.367617 C 389.06523,82.458717 387.01793,82.004267 384.9714,82.004267 C 382.24268,82.004267 379.66557,82.653477 377.2408,84.016837 C 374.89032,85.315267 372.99538,87.328497 371.63178,89.925357 L 371.63178,83.303347 L 358.36721,83.303347 L 358.36721,135.69517 L 373.67832,135.69517 L 373.67832,111.99874 C 373.60252,104.66194 374.43629,99.792807 376.10384,97.260867 z " />
      <path
         style="fill:#88c540"
         id="path11"
         d="M 691.04278,128.94266 C 697.10659,123.61908 700.21429,117.06199 700.21429,109.33631 C 700.21429,101.80539 697.10659,95.378137 690.96699,89.989637 C 684.75158,84.666057 677.32342,82.004267 668.6067,82.004267 C 663.67986,82.004267 659.132,82.912517 655.11473,84.730327 C 651.02166,86.548787 647.45917,89.275497 644.42727,92.911107 L 644.42727,83.302697 L 636.54432,83.302697 L 636.54432,154.84642 L 644.42727,154.84642 L 644.42727,126.6704 C 647.68657,130.11125 651.39989,132.70812 655.41792,134.39608 C 659.51023,136.14832 663.98305,136.99295 668.83333,136.99295 C 677.55081,136.9936 684.90318,134.33116 691.04278,128.94266 z M 680.12793,91.223797 C 683.84201,93.105877 686.79812,95.638467 688.99625,99.014397 C 691.11858,102.32541 692.25554,105.83118 692.25554,109.53107 C 692.25554,113.23161 691.11858,116.73803 688.92045,120.11396 C 686.72308,123.48924 683.76622,126.08611 680.05289,127.96948 C 676.33881,129.85221 672.39658,130.76112 668.15267,130.76112 C 663.90725,130.76112 659.81494,129.85286 655.9485,127.96948 C 652.08283,126.15168 649.12672,123.61973 647.00439,120.43857 C 644.95785,117.2574 643.89669,113.68671 643.89669,109.72648 C 643.89669,103.68812 646.24641,98.624217 650.87007,94.599077 C 655.56876,90.509007 661.25358,88.497087 668.07536,88.497087 C 672.39658,88.496437 676.48965,89.405337 680.12793,91.223797 z " />
      <path
         style="fill:#88c540"
         id="path13"
         d="M 568.3265,90.638847 C 570.60043,91.937287 572.19218,93.755097 573.10175,96.027347 C 574.01132,98.299607 574.46611,102.5851 574.5419,108.88185 L 574.5419,135.69517 L 582.34905,135.69517 L 582.34905,115.24483 C 582.34905,107.71326 583.10703,102.38968 584.54718,99.143597 C 586.06313,95.963077 588.33706,93.366207 591.5198,91.418557 C 594.62826,89.535827 598.11419,88.562007 601.98063,88.562007 C 605.08833,88.562007 607.81628,89.211217 610.09021,90.509657 C 612.36414,91.743167 613.95664,93.431137 614.86622,95.573547 C 615.85158,97.651047 616.30561,101.54635 616.30561,107.13027 L 616.30561,135.69582 L 624.34091,135.69582 L 624.34091,107.13027 C 624.34091,100.57252 623.58294,95.639117 621.99043,92.393037 C 620.39868,89.081377 617.97316,86.550077 614.78966,84.797197 C 611.53036,82.914467 607.74048,82.005557 603.57162,82.005557 C 599.02376,82.005557 594.7791,83.044307 590.83762,85.186077 C 586.89615,87.329137 583.63685,90.445387 580.98394,94.534797 C 579.77042,91.483477 578.33102,89.081377 576.58768,87.458337 C 574.92013,85.770367 572.72124,84.471937 570.06833,83.498107 C 567.41541,82.524287 564.6109,82.004917 561.579,82.004917 C 557.18274,82.004917 553.01387,82.978737 549.0724,84.991307 C 546.11705,86.549427 543.31178,89.016457 540.58383,92.327467 L 540.58383,83.302697 L 532.70164,83.302697 L 532.70164,135.69452 L 540.58459,135.69452 L 540.58459,113.55622 C 540.58459,106.99912 541.34256,102.13 542.85851,98.948827 C 544.37447,95.768317 546.72419,93.235717 549.90769,91.352987 C 553.09119,89.470907 556.50208,88.561357 560.14036,88.561357 C 563.24806,88.561357 565.97678,89.210577 568.3265,90.638847 z " />
      <path
         style="fill:#88c540"
         id="path15"
         d="M 444.85224,87.717377 C 442.27588,85.964487 439.09163,84.601127 435.30175,83.562387 C 431.51187,82.523637 427.64619,82.004917 423.55312,82.004917 C 417.11033,82.004917 411.27392,83.237777 406.04388,85.640527 C 400.81385,88.107557 396.72002,91.483477 393.76468,95.833237 C 390.73277,100.18299 389.29262,104.85736 389.29262,109.92125 C 389.29262,117.45217 392.47612,123.87942 398.84387,129.13808 C 405.21011,134.39738 413.24541,136.99425 422.9475,136.99425 C 429.2387,136.99425 434.84772,135.95485 439.85036,133.87736 C 444.7772,131.80051 448.64288,128.87904 451.59899,125.11293 L 445.38358,121.60781 C 439.62297,127.7098 432.2706,130.76177 423.25069,130.76177 C 418.32385,130.76177 413.92759,129.85351 409.98612,127.97013 C 406.0454,126.15233 402.93694,123.49054 400.66301,120.17953 C 398.38909,116.8036 397.25212,113.16798 397.25212,109.40253 C 397.25212,103.55957 399.67764,98.560597 404.60449,94.470527 C 409.60713,90.379817 415.74673,88.302967 423.25069,88.302967 C 432.57455,88.302967 439.92616,91.353637 445.38358,97.521197 L 451.59899,94.145917 C 449.77909,91.548407 447.50516,89.405337 444.85224,87.717377 z " />
      <path
         style="fill:#88c540"
         id="path17"
         d="M 487.82947,82.004267 C 479.18931,82.004267 471.76038,84.666057 465.54574,89.989637 C 459.40538,95.378137 456.22188,101.80539 456.22188,109.33631 C 456.22188,117.06199 459.33034,123.61908 465.46919,128.94266 C 471.60955,134.33116 478.96115,136.99295 487.60208,136.99295 C 492.52892,136.99295 497.00098,136.14832 501.09405,134.46101 C 505.18712,132.70812 508.9012,130.11125 512.16125,126.6704 L 512.16125,135.69452 L 520.04344,135.69452 L 520.04344,83.302697 L 512.16049,83.302697 L 512.16049,92.911107 C 509.12859,89.275497 505.56611,86.548787 501.47228,84.730327 C 497.45576,82.913167 492.90791,82.004267 487.82947,82.004267 z M 467.51572,99.014397 C 469.71385,95.638467 472.66996,93.105877 476.38404,91.223797 C 480.02232,89.405337 484.11539,88.497087 488.43509,88.497087 C 495.25688,88.497087 501.01825,90.509657 505.64114,94.599077 C 510.34059,98.624217 512.61452,103.68812 512.69032,109.72648 C 512.69032,113.68671 511.62991,117.2574 509.50758,120.43857 C 507.46104,123.61908 504.50418,126.15168 500.63926,127.96948 C 496.77283,129.85221 492.68052,130.76112 488.43509,130.76112 C 484.11539,130.76112 480.17392,129.78729 476.45908,127.96948 C 472.74575,126.08675 469.78889,123.48989 467.51496,120.11396 C 465.31683,116.73803 464.17987,113.23161 464.17987,109.53107 C 464.18063,105.83118 465.31759,102.32476 467.51572,99.014397 z " />
      <path
         style="fill:#faa823"
         id="path19"
         d="M 499.04751,143.29036 L 497.75895,143.29036 L 497.75895,154.84707 L 499.04676,154.84707 L 499.04676,149.26316 L 505.94509,149.26316 L 505.94509,154.84707 L 507.30945,154.84707 L 507.30945,143.29036 L 505.94509,143.29036 L 505.94509,148.09456 L 499.04751,148.09456 L 499.04751,143.29036 z " />
      <path
         style="fill:#faa823"
         id="path21"
         d="M 542.25213,144.78421 C 543.1617,144.32975 544.14707,144.13499 545.20824,144.13499 C 546.19361,144.13499 547.10318,144.26418 547.93695,144.65436 C 548.77148,144.97897 549.4529,145.43342 550.06004,146.08264 L 551.12045,145.43342 C 550.43903,144.65436 549.6045,144.06942 548.61913,143.61497 C 547.55796,143.22544 546.421,142.96575 545.20824,142.96575 C 543.08591,142.96575 541.41836,143.55004 539.97821,144.71864 C 538.61385,145.88723 537.93243,147.3155 537.93243,149.00412 C 537.93243,150.56159 538.46225,151.99052 539.59922,153.09354 C 540.96433,154.45754 542.85927,155.10676 545.20824,155.10676 C 546.4968,155.10676 547.55796,154.91199 548.61913,154.52311 C 549.6045,154.13293 550.43827,153.54929 551.12045,152.8345 L 550.06004,152.11971 C 548.77148,153.41814 547.17898,154.00244 545.28404,154.00244 C 543.61725,154.00244 542.17634,153.54864 541.03937,152.63908 C 539.90241,151.66526 539.29603,150.49602 539.29603,149.06839 C 539.29603,148.15949 539.59846,147.3155 540.1298,146.60137 C 540.58459,145.8223 541.26677,145.23801 542.25213,144.78421 z " />
      <path
         style="fill:#faa823"
         id="path23"
         d="M 456.14608,145.4977 C 455.7671,146.34168 455.5397,147.57519 455.5397,149.06839 C 455.5397,150.56159 455.7671,151.73018 456.14608,152.57416 C 456.52507,153.4175 457.05565,154.06671 457.73783,154.45624 C 458.42001,154.91069 459.17799,155.10546 460.01176,155.10546 C 460.92133,155.10546 461.75586,154.91069 462.43728,154.45624 C 463.19526,154.06606 463.72584,153.41685 464.18063,152.50859 C 464.55961,151.66461 464.78777,150.49537 464.78777,149.06774 C 464.78777,147.57454 464.55961,146.47087 464.18063,145.62689 C 463.72584,144.71799 463.19526,144.06877 462.43728,143.61367 C 461.75586,143.22414 460.92133,142.96445 460.01176,142.96445 C 459.17799,142.96445 458.42001,143.22414 457.73783,143.61367 C 456.97986,144.06942 456.52507,144.71864 456.14608,145.4977 z M 456.82826,149.06839 C 456.82826,147.76996 456.9791,146.79613 457.20725,146.08199 C 457.50968,145.43277 457.88867,144.91275 458.42001,144.58814 C 458.95059,144.19861 459.55697,144.06877 460.16335,144.06877 C 460.69394,144.06877 461.30032,144.19861 461.8309,144.58814 C 462.28569,144.91275 462.74047,145.49705 463.04366,146.27676 C 463.34685,146.9909 463.42265,147.8998 463.42265,149.06839 C 463.42265,150.23698 463.34685,151.21081 462.96787,152.05479 C 462.66468,152.70401 462.28569,153.22403 461.8309,153.54864 C 461.30032,153.93817 460.69394,154.06736 460.16335,154.06736 C 459.55697,154.06736 458.95059,153.93817 458.42001,153.54864 C 457.88943,153.22403 457.51044,152.70401 457.20725,152.05479 C 456.97986,151.34065 456.82826,150.36682 456.82826,149.06839 z " />
      <path
         style="fill:#faa823"
         id="path25"
         d="M 435.68074,143.74481 C 434.99856,144.26418 434.54377,144.97832 434.24058,145.95215 L 435.68074,145.95215 C 435.90813,145.23736 436.28712,144.78356 436.7419,144.52387 C 437.12089,144.19926 437.65072,144.06942 438.25785,144.06942 C 438.93927,144.06942 439.54566,144.26418 440.0012,144.65371 C 440.45598,144.97832 440.68262,145.43277 440.68262,145.95215 C 440.68262,146.27676 440.60682,146.60137 440.30363,146.92597 C 440.15279,147.25058 439.77381,147.44535 439.24322,147.64011 C 438.78768,147.76996 438.18206,147.8998 437.57568,147.8998 L 437.57568,148.93855 C 438.63684,149.00412 439.39482,149.13331 439.9254,149.32873 C 440.38094,149.52349 440.75993,149.78253 441.06236,150.23698 C 441.36556,150.62716 441.51791,151.01604 441.51791,151.46984 C 441.51791,152.18463 441.21472,152.76828 440.60834,153.22338 C 440.07775,153.7421 439.24398,154.00179 438.25861,154.00179 C 437.42408,154.00179 436.74266,153.80703 436.13552,153.35257 C 435.75653,153.02796 435.37755,152.50859 435.15015,151.72953 L 433.7858,151.72953 C 434.08899,152.8332 434.54377,153.67718 435.37755,154.26148 C 436.13552,154.84577 437.04509,155.10546 438.25861,155.10546 C 439.09239,155.10546 439.9254,154.97562 440.60834,154.65101 C 441.29127,154.3264 441.8211,153.8726 442.20009,153.28765 C 442.65563,152.63843 442.88226,152.05414 442.88226,151.40492 C 442.88226,150.62651 442.57907,149.91172 441.97269,149.32808 C 441.59371,148.87362 440.98733,148.54902 440.30515,148.35425 C 441.51867,147.76996 442.12429,146.99025 442.12429,145.95215 C 442.12429,145.43277 441.97269,144.97832 441.59371,144.52387 C 441.29127,144.0045 440.83573,143.67989 440.22935,143.4202 C 439.54717,143.09559 438.94079,142.96575 438.25861,142.96575 C 437.27249,142.96575 436.43871,143.22544 435.68074,143.74481 z " />
      <path
         style="fill:#faa823"
         id="path27"
         d="M 484.41858,144.39403 L 484.41858,143.29036 L 477.06622,143.29036 L 477.06622,144.39403 L 480.02232,144.39403 L 480.02232,154.84707 L 481.46247,154.84707 L 481.46247,144.39403 L 484.41858,144.39403 z " />
      <path
         style="fill:#faa823"
         id="path29"
         d="M 617.06435,143.29036 L 615.62419,143.29036 L 615.62419,154.84707 L 617.06359,154.84707 L 617.06359,149.45792 L 622.9758,154.84707 L 624.7199,154.84707 L 617.74652,148.48409 L 624.26512,143.29036 L 622.44597,143.29036 L 617.06359,147.57584 L 617.06359,143.29036 L 617.06435,143.29036 z " />
      <path
         style="fill:#faa823"
         id="path31"
         d="M 576.74003,144.71864 C 575.37568,143.55004 573.63233,142.96575 571.5858,142.96575 C 570.37304,142.96575 569.16027,143.22544 568.09911,143.81038 C 566.96214,144.32975 566.12761,145.04324 565.52199,146.01707 C 564.91561,146.92597 564.61242,147.96472 564.61242,149.06839 C 564.61242,150.75635 565.2946,152.18463 566.65895,153.35322 C 568.02331,154.52246 569.69086,155.10611 571.73739,155.10611 C 573.70813,155.10611 575.37568,154.52246 576.74003,153.35322 C 578.10515,152.18463 578.78657,150.75635 578.78657,149.06839 C 578.78657,147.3155 578.10439,145.95215 576.74003,144.71864 z M 571.66159,144.06942 C 572.722,144.06942 573.63233,144.32911 574.5419,144.78421 C 575.45147,145.23801 576.13365,145.82295 576.66423,146.60201 C 577.11902,147.31615 577.42221,148.09521 577.42221,149.06904 C 577.42221,149.97794 577.11902,150.82128 576.66423,151.53606 C 576.13365,152.31512 575.45147,152.90007 574.5419,153.35387 C 573.70737,153.7434 572.72276,154.00309 571.66159,154.00309 C 570.14564,154.00309 568.78053,153.48372 567.64357,152.57546 C 566.5066,151.60164 565.97678,150.49732 565.97678,149.06969 C 565.97678,148.16078 566.20417,147.3168 566.73475,146.60266 C 567.18954,145.8236 567.94751,145.23866 568.85708,144.78486 C 569.69086,144.32911 570.67623,144.06942 571.66159,144.06942 z " />
      <path
         style="fill:#faa823"
         id="path33"
         d="M 601.37425,146.34168 C 601.37425,145.62754 601.14685,144.97832 600.61627,144.4596 C 600.16148,143.93958 599.47931,143.61497 598.72133,143.4202 C 598.19151,143.35528 597.12958,143.29036 595.61363,143.29036 L 592.96071,143.29036 L 592.96071,154.84707 L 594.32507,154.84707 L 594.32507,149.52349 L 595.08305,149.52349 L 599.93409,154.84707 L 601.60164,154.84707 L 596.75059,149.52349 C 597.88756,149.45792 598.72133,149.32873 599.40351,149.06904 C 600.00989,148.87427 600.54047,148.54967 600.91946,148.03029 C 601.22265,147.57519 601.37425,146.9909 601.37425,146.34168 z M 596.6748,144.39403 C 597.58361,144.39403 598.26655,144.4596 598.64553,144.58879 C 599.10032,144.71864 599.40351,144.97897 599.6309,145.30358 C 599.85829,145.62819 600.00989,145.9528 600.00989,146.34233 C 600.00989,146.73251 599.85829,147.12139 599.6309,147.446 C 599.40351,147.77061 599.02452,147.96537 598.64553,148.09521 C 598.19075,148.28998 597.50857,148.3549 596.599,148.3549 L 594.32507,148.3549 L 594.32507,144.39403 L 596.6748,144.39403 z " />
      <path
         style="fill:#faa823"
         id="path35"
         d="M 398.23673,143.29036 L 395.50802,143.29036 L 395.50802,154.84707 L 396.87238,154.84707 L 396.87238,149.52349 L 397.63035,149.52349 L 402.4814,154.84707 L 404.14894,154.84707 L 399.2979,149.52349 C 400.43486,149.45792 401.26864,149.32873 401.95081,149.06904 C 402.63299,148.87427 403.16357,148.54967 403.46677,148.03029 C 403.84575,147.57584 403.92155,146.9909 403.92155,146.34168 C 403.92155,145.62754 403.69416,144.97832 403.16357,144.4596 C 402.70879,143.93958 402.02661,143.61497 401.26864,143.4202 C 400.73805,143.35528 399.75268,143.29036 398.23673,143.29036 z M 396.87238,148.3549 L 396.87238,144.39403 L 399.2979,144.39403 C 400.13167,144.39403 400.81385,144.4596 401.26864,144.58879 C 401.64762,144.71864 401.95081,144.97897 402.25476,145.30358 C 402.4056,145.62819 402.55719,145.9528 402.55719,146.34233 C 402.55719,146.73251 402.4056,147.12139 402.25476,147.446 C 401.95157,147.77061 401.64762,147.96537 401.1936,148.09521 C 400.81461,148.28998 400.13243,148.3549 399.22286,148.3549 L 396.87238,148.3549 z " />
      <path
         style="fill:#faa823"
         id="path37"
         d="M 268.31968,146.34168 C 268.31968,145.62754 268.01649,144.9134 267.5617,144.4596 C 267.03112,143.93958 266.42474,143.61497 265.66677,143.4202 C 265.13618,143.35528 264.07426,143.29036 262.55831,143.29036 L 259.83035,143.29036 L 259.83035,154.84707 L 261.19471,154.84707 L 261.19471,149.45792 L 262.18008,149.45792 C 263.84762,149.45792 264.98459,149.393 265.59097,149.26316 C 266.4255,149.13331 267.10692,148.74378 267.56246,148.28933 C 268.09229,147.76996 268.31968,147.12074 268.31968,146.34168 z M 266.50054,145.30293 C 266.80373,145.62754 266.87953,145.95215 266.87953,146.34168 C 266.87953,146.73186 266.80373,147.12074 266.50054,147.44535 C 266.27315,147.76996 265.96996,147.96472 265.51517,148.15949 C 265.13618,148.28933 264.454,148.3549 263.46864,148.3549 L 261.19471,148.28933 L 261.19471,144.39403 L 263.62023,144.39403 C 264.5298,144.39403 265.13618,144.4596 265.59097,144.58879 C 265.96996,144.71864 266.27315,144.97832 266.50054,145.30293 z " />
      <path
         style="fill:#faa823"
         id="path39"
         d="M 303.11077,148.03029 L 303.11077,144.39403 L 309.47777,144.39403 L 309.47777,143.29036 L 301.74641,143.29036 L 301.74641,154.84707 L 309.40197,154.84707 L 309.40197,153.67783 L 303.11077,153.67783 L 303.11077,149.19888 L 309.40273,149.19888 L 309.40273,148.03029 L 303.11077,148.03029 z " />
      <path
         style="fill:#faa823"
         id="path41"
         d="M 281.05367,144.39403 L 284.00978,144.39403 L 284.00978,154.84707 L 285.44918,154.84707 L 285.44918,144.39403 L 288.40528,144.39403 L 288.40528,143.29036 L 281.05367,143.29036 L 281.05367,144.39403 z " />
      <path
         style="fill:#faa823"
         id="path43"
         d="M 246.18679,143.29036 L 238.45543,143.29036 L 238.45543,154.84707 L 246.11099,154.84707 L 246.11099,153.67783 L 239.74399,153.67783 L 239.74399,149.19888 L 246.11099,149.19888 L 246.11099,148.03029 L 239.74399,148.03029 L 239.74399,144.39403 L 246.18679,144.39403 L 246.18679,143.29036 z " />
      <path
         style="fill:#faa823"
         id="path45"
         d="M 221.55257,144.4596 C 221.85576,144.65436 222.38635,145.04324 222.84113,145.62819 L 223.9781,144.84913 C 223.37172,144.13499 222.76534,143.68054 222.23475,143.35593 C 221.62837,143.09624 221.09779,142.96575 220.41561,142.96575 C 219.80923,142.96575 219.20285,143.09559 218.74806,143.35593 C 218.21748,143.55069 217.83849,143.8753 217.5353,144.32975 C 217.30791,144.71928 217.15631,145.17374 217.15631,145.69311 C 217.15631,146.34233 217.30791,146.92662 217.83849,147.446 C 218.06589,147.77061 218.82386,148.28998 219.96082,149.06904 C 221.09779,149.78318 221.85576,150.36747 222.23475,150.88685 C 222.61374,151.27703 222.76534,151.66591 222.76534,152.05544 C 222.76534,152.38005 222.61374,152.70465 222.38635,153.02926 C 222.23475,153.28895 221.85576,153.54929 221.47678,153.7434 C 221.09779,153.87389 220.7188,154.00309 220.26401,154.00309 C 219.20285,154.00309 218.21748,153.35387 217.4595,152.05544 L 216.32254,152.70465 C 216.85312,153.54929 217.4595,154.1985 218.06589,154.58738 C 218.82386,154.91199 219.58184,155.10676 220.33981,155.10676 C 221.40098,155.10676 222.31055,154.78215 223.06853,154.1985 C 223.7507,153.54929 224.12969,152.8345 224.12969,151.99117 C 224.12969,151.40687 223.9781,150.82193 223.52331,150.3032 C 223.14432,149.71891 222.23475,149.06969 221.09779,148.28998 C 220.11242,147.70633 219.58184,147.31615 219.35444,147.12139 C 219.05125,146.8617 218.82386,146.60201 218.74806,146.34233 C 218.59647,146.14756 218.52067,145.9528 218.52067,145.62819 C 218.52067,145.23801 218.74806,144.9134 219.05125,144.58879 C 219.43024,144.32975 219.80923,144.19926 220.33981,144.19926 C 220.7946,144.19926 221.24938,144.26418 221.55257,144.4596 z " />
      <path
         style="fill:#faa823"
         id="path47"
         d="M 375.34586,149.19823 L 381.7121,149.19823 L 381.7121,148.02964 L 375.34586,148.02964 L 375.34586,144.39338 L 381.78866,144.39338 L 381.78866,143.28971 L 374.0573,143.28971 L 374.0573,154.84642 L 381.71286,154.84642 L 381.71286,153.67718 L 375.34586,153.67718 L 375.34586,149.19823 z " />
      <path
         style="fill:#faa823"
         id="path49"
         d="M 324.71308,143.29036 L 324.48569,143.29036 L 322.59075,154.84707 L 323.87931,154.84707 L 325.24366,146.47217 L 330.01891,154.84707 L 330.3979,154.84707 L 335.1739,146.60201 L 336.4617,154.84707 L 337.82682,154.84707 L 335.85532,143.29036 L 335.62793,143.29036 L 330.2463,152.76893 L 324.71308,143.29036 z " />
      <path
         style="fill:#faa823"
         id="path51"
         d="M 358.89779,146.08264 C 358.89779,145.56262 358.74619,145.04324 358.36721,144.58879 C 358.06401,144.13499 357.60923,143.81038 357.00285,143.61497 C 356.47227,143.35593 355.63849,143.29036 354.57733,143.29036 L 351.84861,143.29036 L 351.84861,154.84707 L 355.56194,154.84707 C 356.92629,154.84707 357.98746,154.52246 358.74544,153.87325 C 359.57921,153.22403 359.9582,152.44432 359.9582,151.53541 C 359.9582,151.08096 359.8824,150.62716 359.65576,150.23698 C 359.42913,149.8468 359.12518,149.52284 358.74619,149.26316 C 358.36721,148.93855 357.83662,148.74378 357.15444,148.54902 C 357.68427,148.28933 358.13981,147.8998 358.44224,147.50962 C 358.74619,147.05647 358.89779,146.60137 358.89779,146.08264 z M 354.72892,144.39403 C 355.71429,144.39403 356.39647,144.58879 356.85125,144.84848 C 357.23024,145.17309 357.45763,145.56262 357.45763,146.08199 C 357.45763,146.47152 357.38184,146.8604 357.07865,147.18501 C 356.85125,147.50962 356.47227,147.70503 356.01824,147.8998 C 355.63925,148.02964 354.95707,148.09456 353.9717,148.09456 L 353.21373,148.09456 L 353.21373,144.39403 L 354.72892,144.39403 L 354.72892,144.39403 z M 356.39647,149.393 C 357.07789,149.52284 357.60923,149.78253 357.98822,150.17141 C 358.36721,150.56159 358.5946,151.01604 358.5946,151.53541 C 358.5946,151.92559 358.443,152.31448 358.13981,152.70401 C 357.91242,153.02861 357.53343,153.2883 357.07865,153.48307 C 356.62386,153.61291 355.86589,153.67783 354.88127,153.67783 L 353.21373,153.67783 L 353.21373,149.26316 L 353.9717,149.26316 C 355.10791,149.26316 355.94168,149.32873 356.39647,149.393 z " />
      <path
         style="fill:#88c540"
         id="path53"
         d="M 688.16247,60.190567 L 684.67579,60.190567 L 684.67579,74.733027 L 690.05741,74.733027 C 692.1805,74.733027 693.84729,74.473347 694.98426,73.953967 C 696.19778,73.434597 697.10735,72.590617 697.86532,71.486947 C 698.6233,70.383277 699.00229,69.084847 699.00229,67.656567 C 699.00229,65.968597 698.54674,64.476047 697.56213,63.306807 C 696.65256,62.073947 695.364,61.164397 693.69646,60.709947 C 692.55873,60.320417 690.73959,60.190567 688.16247,60.190567 z M 696.04542,64.085867 C 696.8792,65.059697 697.25818,66.293207 697.25818,67.656567 C 697.25818,69.020567 696.8792,70.123587 696.12122,71.097417 C 695.4398,72.006317 694.37788,72.655537 693.16587,72.980147 C 692.2563,73.239837 690.58876,73.434597 688.23903,73.434597 L 686.26754,73.434597 L 686.26754,61.618847 L 687.48105,61.618847 C 689.90658,61.618847 691.64992,61.748687 692.71033,62.008377 C 694.15048,62.397907 695.28745,63.047127 696.04542,64.085867 z " />
      <path
         style="fill:#88c540"
         id="path55"
         d="M 588.64025,60.385337 C 587.95883,60.256137 586.66952,60.190567 584.77458,60.190567 L 581.36368,60.190567 L 581.36368,74.733027 L 583.10703,74.733027 L 583.10703,67.981177 L 584.0166,67.981177 L 590.1562,74.733027 L 592.27854,74.733027 L 586.13893,67.981177 C 587.57909,67.981177 588.71605,67.786407 589.47403,67.526727 C 590.3078,67.202117 590.91342,66.748307 591.36897,66.163367 C 591.82375,65.514147 592.05039,64.864937 592.05039,64.085867 C 592.05039,63.112047 591.74795,62.268067 591.06502,61.683767 C 590.45939,60.969627 589.62562,60.580097 588.64025,60.385337 z M 586.06313,61.618847 C 587.2759,61.618847 588.10891,61.683767 588.56446,61.878537 C 589.09504,62.007727 589.47403,62.332337 589.77722,62.722517 C 590.08041,63.112047 590.23276,63.566497 590.23276,64.020947 C 590.23276,64.540327 590.08116,64.994777 589.77722,65.449227 C 589.47478,65.838757 589.0958,66.098447 588.56446,66.293207 C 587.95807,66.487977 587.1243,66.552247 585.98734,66.552247 L 583.10703,66.552247 L 583.10703,61.618197 L 586.06313,61.618197 L 586.06313,61.618847 z " />
      <path
         style="fill:#88c540"
         id="path57"
         d="M 603.42078,67.591647 L 611.37953,67.591647 L 611.37953,66.163367 L 603.42078,66.163367 L 603.42078,61.618847 L 611.45532,61.618847 L 611.45532,60.190567 L 601.75323,60.190567 L 601.75323,74.733027 L 611.37953,74.733027 L 611.37953,73.304757 L 603.42078,73.304757 L 603.42078,67.591647 L 603.42078,67.591647 z " />
      <path
         style="fill:#88c540"
         id="path59"
         d="M 571.3584,60.190567 L 569.61506,60.190567 L 569.61506,74.733027 L 571.3584,74.733027 L 571.3584,60.190567 z " />
      <path
         style="fill:#88c540"
         id="path61"
         d="M 661.48173,60.190567 L 661.10274,60.190567 L 661.10274,74.733027 L 662.84608,74.733027 L 662.84608,63.696337 L 674.06412,74.733027 L 674.44311,74.733027 L 674.44311,60.190567 L 672.77557,60.190567 L 672.77557,71.357107 L 661.48173,60.190567 z " />
      <path
         style="fill:#88c540"
         id="path63"
         d="M 644.42727,60.190567 L 644.04828,60.190567 L 636.01374,74.733027 L 637.90868,74.733027 L 640.56159,69.928827 L 647.83892,69.928827 L 650.56763,74.733027 L 652.38678,74.733027 L 644.42727,60.190567 z M 641.31957,68.565467 L 644.19988,63.306167 L 647.15598,68.565467 L 641.31957,68.565467 z " />
      <path
         style="fill:#88c540"
         id="path65"
         d="M 622.14278,60.190567 L 620.47524,60.190567 L 620.47524,74.733027 L 628.73717,74.733027 L 628.73717,73.369677 L 622.14278,73.369677 L 622.14278,60.190567 z " />
      <path
         id="path1974"
         d="M 45.714286,223.79075 L 693.57142,223.79076"
         style="fill:none;fill-opacity:0.75;fill-rule:evenodd;stroke:black;stroke-width:1px;stroke-linecap:butt;stroke-linejoin:miter;stroke-opacity:1"
         sodipodi:nodetypes="cc" />
    </g>
    <g
       inkscape:groupmode="layer"
       id="layer3"
       inkscape:label="logo" />
    <g
       inkscape:groupmode="layer"
       id="layer4"
       inkscape:label="logo#1">
      <path
         style="fill:#88c540"
         id="path3"
         d="M 201.54032,126.47651 C 202.98047,120.24403 203.66265,113.88235 203.66265,107.39018 C 203.66265,100.83243 202.98047,94.47075 201.61612,88.10842 C 200.17596,81.81102 198.12943,75.7733 195.32492,70.06019 C 192.5962,64.412 189.10952,59.21826 184.94065,54.67374 C 180.77178,50.06365 175.92074,46.23392 170.38751,43.1826 C 164.93009,40.19621 158.71469,38.11871 151.81711,37.08062 C 144.99532,36.10679 137.49136,36.30156 129.22943,37.72983 C 131.50336,38.50824 133.70148,39.35223 135.89961,40.39162 C 138.09774,41.36545 140.14428,42.40419 142.19081,43.57213 C 143.63097,44.28692 144.99532,45.13025 146.28388,45.97423 C 147.57244,46.81822 148.48201,47.72712 149.16419,48.70095 C 149.77057,49.67477 149.92217,50.71352 149.39158,51.75227 C 148.10303,53.69992 146.43548,54.99835 144.31315,55.64757 C 142.26661,56.36171 140.06848,56.55582 137.71876,56.42663 C 135.29323,56.23122 132.94351,55.84233 130.66958,55.19312 C 128.31986,54.5439 126.27332,53.89468 124.45418,53.11562 C 122.48344,52.33656 120.3611,51.42766 118.23877,50.51875 C 116.11644,49.6105 113.9941,48.76587 111.72018,48.05173 C 109.52205,47.27267 107.32392,46.7533 105.04999,46.42869 C 102.77606,46.03916 100.42634,46.03916 98.15241,46.36377 C 95.80269,46.7533 93.75615,47.53236 91.93701,48.76522 C 90.04207,49.93446 88.45032,51.42766 87.08596,53.18054 C 85.64581,54.86851 84.50885,56.68567 83.44768,58.56905 C 82.46231,60.5167 81.55274,62.33451 80.87056,64.08739 C 83.44768,63.43817 86.17639,62.9188 89.2083,62.52927 C 92.1644,62.20466 95.04471,62.07482 98.00081,62.33451 C 100.88112,62.52927 103.60984,63.17849 106.03536,64.34708 C 108.46088,65.45075 110.43162,67.20363 111.94757,69.54081 C 112.85714,70.96909 113.53932,72.59214 113.9941,74.40994 C 114.44889,76.29267 114.67628,78.17605 114.67628,80.1237 C 114.60048,82.07135 114.29729,83.95343 113.69091,85.77124 C 113.08453,87.52413 112.17496,89.14717 110.8864,90.57545 C 109.67364,91.93945 108.0061,93.04247 106.03536,93.75661 C 103.83723,94.53567 101.7149,94.86028 99.74416,94.73044 C 97.77342,94.66487 95.87848,94.27599 93.98354,93.56185 C 92.1644,92.91263 90.42106,92.00373 88.75351,91.0299 C 87.01017,90.05607 85.34262,88.95241 83.67507,87.91366 C 82.08332,86.87426 80.41578,85.90044 78.82403,85.12138 C 77.38387,84.34296 75.71633,83.5639 73.82139,82.71992 C 71.92645,81.94086 69.87991,81.1618 67.83338,80.44766 C 65.71105,79.79844 63.66451,79.40827 61.61798,79.21415 C 59.57144,79.08431 57.6765,79.34399 55.93316,79.92829 C 54.26561,80.57751 52.82546,81.74675 51.6127,83.56455 C 50.77892,84.92791 50.17254,86.35619 49.94515,87.78446 C 49.71776,89.21274 49.56616,90.70594 49.64196,92.13422 C 49.64196,93.62742 49.71776,95.12062 49.79355,96.54889 C 49.79355,98.04209 49.79355,99.47037 49.56616,100.89865 C 49.33877,102.32693 48.80819,103.75455 47.97441,105.11857 C 46.68585,107.26099 45.01831,108.75419 42.971773,109.72801 C 41.001036,110.70184 38.802906,111.28613 36.377384,111.4809 C 34.027659,111.67566 31.602136,111.67566 29.100816,111.41598 C 26.675293,111.22056 24.325568,110.89595 22.051641,110.63691 C 23.112807,111.4809 24.173973,112.3898 25.159342,113.2987 C 26.220508,114.20761 27.281674,115.05159 28.418638,115.83065 C 29.858792,116.73891 31.374743,117.64846 33.04229,118.36195 C 34.634039,119.14101 36.377384,119.66038 38.120728,119.98499 C 39.93987,120.3096 41.683214,120.3096 43.57815,120.05056 C 45.85208,119.66038 47.89862,118.94689 49.71776,117.97307 C 51.5369,117.06416 53.28024,115.83065 54.94779,114.4673 C 56.08475,113.49347 57.07012,112.45472 57.97969,111.41662 C 58.81347,110.37723 59.79884,109.46897 60.86,108.56007 C 61.92117,107.71609 63.28552,107.06687 64.87727,106.61242 C 66.84801,106.15797 68.89454,106.02812 70.94108,106.22289 C 72.98761,106.41765 74.88255,106.93703 76.7017,107.71609 C 79.27881,108.81976 81.78013,110.31296 83.97826,112.19504 C 86.17639,114.07777 87.91974,116.22018 89.2083,118.55801 C 90.42106,120.95947 91.02744,123.42714 90.87584,126.02401 C 90.72425,127.38736 90.26946,128.62088 89.58728,129.78947 C 88.82931,130.95806 87.91974,131.99616 86.78277,132.96998 C 85.72161,133.87889 84.50885,134.78844 83.29608,135.50193 C 82.23492,136.21607 80.71897,136.80036 78.67243,137.38466 C 76.6259,137.90403 74.27617,138.35848 71.62326,138.68309 C 73.3666,140.69567 75.26154,142.25379 77.38387,143.35681 C 79.582,144.46048 81.93173,145.23954 84.43305,145.62907 C 87.01017,146.08352 89.66308,146.21336 92.46759,146.21336 C 95.2721,146.14844 98.22821,146.0186 101.26011,145.75891 C 103.76143,145.56414 106.18695,145.17526 108.76407,144.59032 C 111.26539,144.00602 113.84251,143.42173 116.41963,142.83743 C 118.92095,142.25379 121.57386,141.79869 124.07519,141.60457 C 126.65231,141.34488 129.15363,141.47473 131.65495,141.92918 C 134.38366,142.51282 136.2786,143.48665 137.33977,144.78508 C 138.47673,146.14909 138.85572,147.64164 138.70413,149.3296 C 138.47673,150.95265 137.79455,152.64126 136.65759,154.2643 C 135.59642,155.88735 134.15627,157.2507 132.48872,158.48421 C 129.83581,160.23645 126.9555,161.59981 123.8478,162.44444 C 120.81589,163.35334 117.63239,163.87207 114.29729,164.1324 C 111.038,164.32782 107.70291,164.32782 104.44361,164.06748 C 107.9303,165.56068 111.49278,166.98896 115.13107,168.22247 C 118.69355,169.5209 122.40765,170.62392 126.12173,171.53348 C 134.83845,173.54605 142.79719,174.32511 149.99796,173.80574 C 157.19873,173.35128 163.71733,171.72824 169.40215,169.13137 C 175.16276,166.46893 180.1654,163.02938 184.41007,158.7439 C 188.73053,154.45842 192.29301,149.52502 195.17332,144.07159 C 197.97783,138.55195 200.10016,132.77392 201.54032,126.47651 z M 149.31579,83.36849 C 150.14956,82.91404 151.13493,82.78419 152.0445,82.91404 C 153.02987,83.1088 153.78784,83.56325 154.39422,84.27739 C 157.04714,87.71824 159.09367,91.35386 160.45803,95.31408 C 161.89818,99.20939 162.58036,103.23453 162.58036,107.39018 C 162.58036,111.67501 161.82239,115.76443 160.38223,119.7253 C 158.94208,123.75045 156.81975,127.45034 154.01524,130.95676 C 153.40886,131.6709 152.57508,132.12535 151.66551,132.25519 C 150.68014,132.44996 149.84637,132.25519 148.9368,131.80074 C 148.10303,131.28137 147.64824,130.56788 147.42085,129.78817 C 147.26925,128.94419 147.42085,128.23005 148.02723,127.45034 C 150.37695,124.46394 152.19609,121.28278 153.40886,117.9075 C 154.69741,114.53157 155.3038,111.02515 155.3038,107.39018 C 155.3038,103.8844 154.69741,100.44355 153.48465,97.13254 C 152.34769,93.75661 150.60435,90.70529 148.33042,87.78381 C 147.72404,87.00475 147.57244,86.16077 147.79983,85.38171 C 147.95143,84.53708 148.48201,83.88786 149.31579,83.36849 z M 161.97398,77.26585 C 162.12558,76.42187 162.65616,75.77265 163.48993,75.25328 C 164.3995,74.79882 165.30908,74.66898 166.21865,74.79882 C 167.20402,74.99359 167.96199,75.44804 168.56837,76.16218 C 172.20666,80.77227 174.93537,85.77059 176.83031,91.02925 C 178.64945,96.35283 179.63482,101.80625 179.63482,107.38953 C 179.63482,113.16691 178.64945,118.68526 176.67871,124.07441 C 174.70798,129.52718 171.82767,134.5268 168.03779,139.26544 C 167.43141,139.98023 166.67343,140.43403 165.68806,140.56387 C 164.77849,140.69372 163.86892,140.56387 163.03515,140.0445 C 162.20137,139.52513 161.67079,138.87591 161.5192,138.09685 C 161.2918,137.25287 161.5192,136.47381 162.04978,135.75967 C 165.46067,131.53976 167.96199,126.99524 169.70534,122.2553 C 171.44868,117.45175 172.35825,112.51705 172.35825,107.38888 C 172.35825,102.3899 171.52448,97.58504 169.85693,92.84641 C 168.18938,88.17205 165.68806,83.75737 162.50457,79.6673 C 161.89818,78.88889 161.74659,78.04491 161.97398,77.26585 z M 177.0577,67.52759 C 177.89147,67.00822 178.80104,66.87838 179.78641,67.07314 C 180.69598,67.20298 181.45396,67.65744 182.06034,68.37157 C 186.6082,74.21453 190.09488,80.38209 192.36881,87.0041 C 194.71854,93.56185 195.9313,100.37863 195.9313,107.38953 C 195.9313,114.59584 194.71854,121.54246 192.21722,128.2294 C 189.79169,134.98126 186.22921,141.27931 181.45396,147.18654 C 180.84758,147.90068 180.0896,148.29021 179.10424,148.48497 C 178.19466,148.61482 177.28509,148.48497 176.45132,147.9656 C 175.61755,147.44622 175.08696,146.79701 174.93537,145.95238 C 174.70798,145.17396 174.93537,144.3949 175.46595,143.61519 C 179.78641,138.29161 183.04571,132.51358 185.31964,126.41094 C 187.51777,120.24338 188.65473,113.94597 188.65473,107.38888 C 188.65473,101.02654 187.59356,94.79406 185.39543,88.82061 C 183.2731,82.7829 180.1654,77.13471 175.99653,71.87605 C 175.46595,71.09699 175.31436,70.31793 175.46595,69.47395 C 175.69334,68.69618 176.14813,68.04697 177.0577,67.52759 z " />
    </g>
    <text
       xml:space="preserve"
       style="font-size:245.7699585px;font-style:normal;font-weight:normal;fill:black;fill-opacity:1;stroke:none;stroke-width:1px;stroke-linecap:butt;stroke-linejoin:miter;stroke-opacity:1;font-family:Bitstream Vera Sans"
       x="205.96976"
       y="42.241096"
       id="text2147"
       transform="scale(0.701221,1.426084)"><tspan
         sodipodi:role="line"
         id="tspan2149"
         x="205.96976"
         y="42.241096" /><tspan
         sodipodi:role="line"
         x="205.96976"
         y="257.05814"
         id="tspan2153"
         style="font-size:128.90995789px">BARCAMP     </tspan><tspan
         sodipodi:role="line"
         x="205.96976"
         y="418.19558"
         id="tspan2155"
         style="font-size:128.90995789px">SESSION</tspan></text>
  </g>
</svg>
